<svg width="534" height="586" viewBox="0 0 534 586" fill="none" xmlns="http://www.w3.org/2000/svg">
<g clip-path="url(#clip0_30_62)" filter="url(#filter0_d_30_62)">
<path opacity="0.3" d="M286.23 420.51H263.15L174.59 369.31L252.34 323.44L307.9 353.96L286.23 420.51Z" fill="#CFC4B8"/>
<path d="M370.88 349.69L366.76 347.29L361.16 350.52L365.29 352.92L370.88 349.69Z" fill="#E4E3EE"/>
<path d="M360.31 347.89L356.18 345.49L360.4 352.39L364.53 354.79L360.31 347.89Z" fill="#B7B6E3"/>
<path d="M350.54 352.09L346.42 349.7V351.13L350.55 353.52L350.54 352.09Z" fill="#919DD6"/>
<path d="M361.06 346.02L356.94 343.62L346.42 349.7L350.54 352.09L361.06 346.02Z" fill="#E4E3EE"/>
<path d="M350.54 352.09L350.55 353.52L360.31 347.89L364.53 354.79L370.89 351.12L370.88 349.69L365.29 352.92L361.06 346.02L350.54 352.09Z" fill="#919DD6"/>
<path d="M355.55 340.96L351.43 338.56L345.83 341.79L349.96 344.19L355.55 340.96Z" fill="#E4E3EE"/>
<path d="M344.98 339.16L340.85 336.76L345.07 343.66L349.2 346.06L344.98 339.16Z" fill="#B7B6E3"/>
<path d="M335.21 343.36L331.09 340.96V342.39L335.22 344.79L335.21 343.36Z" fill="#919DD6"/>
<path d="M345.73 337.29L341.61 334.89L331.09 340.96L335.21 343.36L345.73 337.29Z" fill="#E4E3EE"/>
<path d="M335.21 343.36L335.22 344.79L344.98 339.16L349.2 346.06L355.56 342.39L355.55 340.96L349.96 344.19L345.73 337.29L335.21 343.36Z" fill="#919DD6"/>
<path d="M340.87 332.21L336.74 329.81L331.15 333.04L335.27 335.44L340.87 332.21Z" fill="#E4E3EE"/>
<path d="M330.3 330.41L326.17 328.01L330.39 334.91L334.52 337.31L330.3 330.41Z" fill="#B7B6E3"/>
<path d="M320.53 334.62L316.41 332.22V333.65L320.54 336.05L320.53 334.62Z" fill="#919DD6"/>
<path d="M331.05 328.54L326.92 326.15L316.41 332.22L320.53 334.62L331.05 328.54Z" fill="#E4E3EE"/>
<path d="M320.53 334.62L320.54 336.05L330.3 330.41L334.52 337.31L340.88 333.64L340.87 332.21L335.27 335.44L331.05 328.54L320.53 334.62Z" fill="#919DD6"/>
<path d="M386.04 359.18L381.91 356.79L376.31 360.02L380.44 362.41L386.04 359.18Z" fill="#E4E3EE"/>
<path d="M375.46 357.39L371.34 354.99L375.56 361.89L379.69 364.29L375.46 357.39Z" fill="#B7B6E3"/>
<path d="M365.7 361.59L361.57 359.19L361.58 360.62L365.7 363.02V361.59Z" fill="#919DD6"/>
<path d="M376.22 355.52L372.09 353.12L361.57 359.19L365.7 361.59L376.22 355.52Z" fill="#E4E3EE"/>
<path d="M365.7 361.59V363.02L375.46 357.39L379.69 364.29L386.04 360.62V359.18L380.44 362.41L376.22 355.52L365.7 361.59Z" fill="#919DD6"/>
<path d="M324.55 322.99L320.42 320.59L314.83 323.82L318.95 326.22L324.55 322.99Z" fill="#E4E3EE"/>
<path d="M313.98 321.19L309.85 318.79L314.07 325.69L318.2 328.09L313.98 321.19Z" fill="#B7B6E3"/>
<path d="M304.21 325.39L300.08 323L300.09 324.43L304.22 326.83L304.21 325.39Z" fill="#919DD6"/>
<path d="M314.73 319.32L310.6 316.92L300.08 323L304.21 325.39L314.73 319.32Z" fill="#E4E3EE"/>
<path d="M304.21 325.39L304.22 326.83L313.98 321.19L318.2 328.09L324.56 324.42L324.55 322.99L318.95 326.22L314.73 319.32L304.21 325.39Z" fill="#919DD6"/>
<path d="M308.87 314.08L304.74 311.68L299.14 314.91L303.27 317.31L308.87 314.08Z" fill="#E4E3EE"/>
<path d="M298.29 312.28L294.16 309.89L298.39 316.79L302.51 319.18L298.29 312.28Z" fill="#B7B6E3"/>
<path d="M288.53 316.49L284.4 314.09V315.52L288.53 317.92V316.49Z" fill="#919DD6"/>
<path d="M299.05 310.42L294.92 308.02L284.4 314.09L288.53 316.49L299.05 310.42Z" fill="#E4E3EE"/>
<path d="M288.53 316.49V317.92L298.29 312.28L302.51 319.18L308.87 315.51V314.08L303.27 317.31L299.05 310.42L288.53 316.49Z" fill="#919DD6"/>
<path d="M202.87 349.9L207 347.5L212.6 350.73L208.47 353.13L202.87 349.9Z" fill="#E4E3EE"/>
<path d="M213.45 348.1L217.58 345.7L213.35 352.6L209.23 355L213.45 348.1Z" fill="#B7B6E3"/>
<path d="M223.21 352.31L227.34 349.91V351.34L223.21 353.74V352.31Z" fill="#919DD6"/>
<path d="M212.69 346.23L216.82 343.84L227.34 349.91L223.21 352.31L212.69 346.23Z" fill="#E4E3EE"/>
<path d="M223.21 352.31V353.74L213.45 348.1L209.23 355L202.87 351.33V349.9L208.47 353.13L212.69 346.23L223.21 352.31Z" fill="#919DD6"/>
<path d="M218.2 341.17L222.33 338.77L227.93 342L223.8 344.4L218.2 341.17Z" fill="#E4E3EE"/>
<path d="M228.78 339.37L232.91 336.97L228.68 343.87L224.56 346.27L228.78 339.37Z" fill="#B7B6E3"/>
<path d="M238.54 343.58L242.67 341.18V342.61L238.54 345.01V343.58Z" fill="#919DD6"/>
<path d="M228.02 337.5L232.15 335.11L242.67 341.18L238.54 343.58L228.02 337.5Z" fill="#E4E3EE"/>
<path d="M238.54 343.58V345.01L228.78 339.37L224.56 346.27L218.2 342.6V341.17L223.8 344.4L228.02 337.5L238.54 343.58Z" fill="#919DD6"/>
<path d="M232.89 332.42L237.01 330.03L242.61 333.26L238.48 335.66L232.89 332.42Z" fill="#E4E3EE"/>
<path d="M243.46 330.63L247.59 328.23L243.36 335.13L239.24 337.53L243.46 330.63Z" fill="#B7B6E3"/>
<path d="M253.23 334.83L257.35 332.43V333.86L253.22 336.26L253.23 334.83Z" fill="#919DD6"/>
<path d="M242.71 328.76L246.83 326.36L257.35 332.43L253.23 334.83L242.71 328.76Z" fill="#E4E3EE"/>
<path d="M253.23 334.83L253.22 336.26L243.46 330.63L239.24 337.53L232.88 333.86L232.89 332.42L238.48 335.66L242.71 328.76L253.23 334.83Z" fill="#919DD6"/>
<path d="M187.72 359.4L191.85 357L197.44 360.23L193.32 362.63L187.72 359.4Z" fill="#E4E3EE"/>
<path d="M198.3 357.6L202.42 355.2L198.2 362.1L194.07 364.5L198.3 357.6Z" fill="#B7B6E3"/>
<path d="M208.06 361.8L212.19 359.41L212.18 360.84L208.05 363.24L208.06 361.8Z" fill="#919DD6"/>
<path d="M197.54 355.73L201.67 353.33L212.19 359.41L208.06 361.8L197.54 355.73Z" fill="#E4E3EE"/>
<path d="M208.06 361.8L208.05 363.24L198.3 357.6L194.07 364.5L187.72 360.83V359.4L193.32 362.63L197.54 355.73L208.06 361.8Z" fill="#919DD6"/>
<path d="M249.21 323.2L253.33 320.8L258.93 324.03L254.8 326.43L249.21 323.2Z" fill="#E4E3EE"/>
<path d="M259.78 321.4L263.91 319.01L259.69 325.91L255.56 328.3L259.78 321.4Z" fill="#B7B6E3"/>
<path d="M269.55 325.61L273.67 323.21V324.64L269.54 327.04L269.55 325.61Z" fill="#919DD6"/>
<path d="M259.03 319.54L263.15 317.14L273.67 323.21L269.55 325.61L259.03 319.54Z" fill="#E4E3EE"/>
<path d="M269.55 325.61L269.54 327.04L259.78 321.4L255.56 328.3L249.2 324.63L249.21 323.2L254.8 326.43L259.03 319.54L269.55 325.61Z" fill="#919DD6"/>
<path d="M264.89 314.3L269.02 311.9L274.62 315.13L270.49 317.53L264.89 314.3Z" fill="#E4E3EE"/>
<path d="M275.47 312.5L279.59 310.1L275.37 317L271.24 319.4L275.47 312.5Z" fill="#B7B6E3"/>
<path d="M285.23 316.7L289.36 314.3L289.35 315.74L285.23 318.13V316.7Z" fill="#919DD6"/>
<path d="M274.71 310.63L278.84 308.23L289.36 314.3L285.23 316.7L274.71 310.63Z" fill="#E4E3EE"/>
<path d="M285.23 316.7V318.13L275.47 312.5L271.24 319.4L264.89 315.73V314.3L270.49 317.53L274.71 310.63L285.23 316.7Z" fill="#919DD6"/>
<path d="M197.75 359.23L197.77 369.11L286.23 420.51L286.2 410.63L197.75 359.23Z" fill="#12B0F3"/>
<path d="M286.2 410.63L286.23 420.51L375.26 369.11L375.23 359.23L286.2 410.63Z" fill="#1393F2"/>
<path d="M197.75 359.23L286.2 410.63L375.23 359.23L286.78 307.83L197.75 359.23Z" fill="#05D4F5"/>
<path d="M218.95 356.72L218.96 361.66L286.29 400.79L286.27 395.85L218.95 356.72Z" fill="#D4D5F0"/>
<path d="M286.27 395.85L286.29 400.79L354.06 361.66L354.04 356.72L286.27 395.85Z" fill="#C4C3EC"/>
<path d="M218.95 356.72L286.27 395.85L354.04 356.72L286.71 317.6L218.95 356.72Z" fill="white"/>
<path d="M382.49 384.72L386.62 382.32L382.45 370.58L378.32 372.98L382.49 384.72Z" fill="#C4C3EC"/>
<path d="M378.32 372.98L382.45 370.58L371.93 364.51L367.8 366.9L378.32 372.98Z" fill="#E4E3EE"/>
<path d="M388.09 387.95L392.22 385.56L386.62 382.32L382.49 384.72L388.09 387.95Z" fill="#E4E3EE"/>
<path d="M388.09 389.39L392.21 386.99L392.22 385.56L388.09 387.95V389.39Z" fill="#B7B6E3"/>
<path d="M367.8 366.9V368.34L377.56 373.97L381.73 385.72L388.09 389.39V387.95L382.49 384.72L378.32 372.98L367.8 366.9Z" fill="#919DD6"/>
<path d="M366.97 393.6L371.1 391.2L366.93 379.46L362.8 381.86L366.97 393.6Z" fill="#C4C3EC"/>
<path d="M362.8 381.86L366.93 379.46L356.41 373.39L352.28 375.79L362.8 381.86Z" fill="#E4E3EE"/>
<path d="M372.57 396.84L376.7 394.44L371.1 391.2L366.97 393.6L372.57 396.84Z" fill="#E4E3EE"/>
<path d="M372.57 398.27L376.69 395.87L376.7 394.44L372.57 396.84V398.27Z" fill="#B7B6E3"/>
<path d="M352.28 375.79V377.22L362.04 382.85L366.21 394.6L372.57 398.27V396.84L366.97 393.6L362.8 381.86L352.28 375.79Z" fill="#919DD6"/>
<path d="M351.58 402.58L355.71 400.18L351.54 388.43L347.41 390.83L351.58 402.58Z" fill="#C4C3EC"/>
<path d="M347.41 390.83L351.54 388.43L341.02 382.36L336.89 384.76L347.41 390.83Z" fill="#E4E3EE"/>
<path d="M357.18 405.81L361.3 403.41L355.71 400.18L351.58 402.58L357.18 405.81Z" fill="#E4E3EE"/>
<path d="M357.17 407.24L361.3 404.84V403.41L357.18 405.81L357.17 407.24Z" fill="#B7B6E3"/>
<path d="M336.89 384.76V386.19L346.65 391.83L350.82 403.57L357.17 407.24L357.18 405.81L351.58 402.58L347.41 390.83L336.89 384.76Z" fill="#919DD6"/>
<path d="M336.19 411.49L340.32 409.09L336.15 397.34L332.02 399.74L336.19 411.49Z" fill="#C4C3EC"/>
<path d="M332.02 399.74L336.15 397.34L325.63 391.27L321.5 393.67L332.02 399.74Z" fill="#E4E3EE"/>
<path d="M341.79 414.72L345.92 412.32L340.32 409.09L336.19 411.49L341.79 414.72Z" fill="#E4E3EE"/>
<path d="M341.78 416.15L345.91 413.75L345.92 412.32L341.79 414.72L341.78 416.15Z" fill="#B7B6E3"/>
<path d="M321.5 393.67V395.1L331.26 400.74L335.43 412.48L341.78 416.15L341.79 414.72L336.19 411.49L332.02 399.74L321.5 393.67Z" fill="#919DD6"/>
<path d="M320.6 420.33L324.73 417.93L320.56 406.19L316.43 408.59L320.6 420.33Z" fill="#C4C3EC"/>
<path d="M316.43 408.59L320.56 406.19L310.04 400.12L305.91 402.52L316.43 408.59Z" fill="#E4E3EE"/>
<path d="M326.2 423.57L330.33 421.17L324.73 417.93L320.6 420.33L326.2 423.57Z" fill="#E4E3EE"/>
<path d="M326.2 425L330.33 422.6V421.17L326.2 423.57V425Z" fill="#B7B6E3"/>
<path d="M305.91 402.52V403.95L315.67 409.58L319.84 421.33L326.2 425V423.57L320.6 420.33L316.43 408.59L305.91 402.52Z" fill="#919DD6"/>
<path d="M305.32 429.26L309.45 426.86L305.28 415.11L301.15 417.51L305.32 429.26Z" fill="#C4C3EC"/>
<path d="M301.15 417.51L305.28 415.11L294.76 409.04L290.63 411.44L301.15 417.51Z" fill="#E4E3EE"/>
<path d="M310.92 432.49L315.05 430.09L309.45 426.86L305.32 429.26L310.92 432.49Z" fill="#E4E3EE"/>
<path d="M310.92 433.92L315.04 431.52L315.05 430.09L310.92 432.49V433.92Z" fill="#B7B6E3"/>
<path d="M290.63 411.44V412.87L300.39 418.51L304.56 430.25L310.92 433.92V432.49L305.32 429.26L301.15 417.51L290.63 411.44Z" fill="#919DD6"/>
<path d="M190.18 384.88L186.05 382.49L190.22 370.74L194.35 373.14L190.18 384.88Z" fill="#C4C3EC"/>
<path d="M194.35 373.14L190.22 370.74L200.74 364.67L204.87 367.07L194.35 373.14Z" fill="#E4E3EE"/>
<path d="M184.58 388.12L180.45 385.72L186.05 382.49L190.18 384.88L184.58 388.12Z" fill="#E4E3EE"/>
<path d="M184.58 389.55L180.46 387.15L180.45 385.72L184.58 388.12V389.55Z" fill="#B7B6E3"/>
<path d="M204.87 367.07V368.5L195.11 374.13L190.94 385.88L184.58 389.55V388.12L190.18 384.88L194.35 373.14L204.87 367.07Z" fill="#919DD6"/>
<path d="M205.7 393.77L201.57 391.37L205.74 379.62L209.87 382.02L205.7 393.77Z" fill="#C4C3EC"/>
<path d="M209.87 382.02L205.74 379.62L216.26 373.55L220.38 375.95L209.87 382.02Z" fill="#E4E3EE"/>
<path d="M200.1 397L195.97 394.6L201.57 391.37L205.7 393.77L200.1 397Z" fill="#E4E3EE"/>
<path d="M200.1 398.43L195.97 396.03V394.6L200.1 397V398.43Z" fill="#B7B6E3"/>
<path d="M220.38 375.95L220.39 377.38L210.63 383.02L206.46 394.76L200.1 398.43V397L205.7 393.77L209.87 382.02L220.38 375.95Z" fill="#919DD6"/>
<path d="M221.09 402.74L216.96 400.34L221.13 388.6L225.26 391L221.09 402.74Z" fill="#C4C3EC"/>
<path d="M225.26 391L221.13 388.6L231.65 382.52L235.78 384.92L225.26 391Z" fill="#E4E3EE"/>
<path d="M215.49 405.97L211.36 403.57L216.96 400.34L221.09 402.74L215.49 405.97Z" fill="#E4E3EE"/>
<path d="M215.49 407.4L211.37 405.01L211.36 403.57L215.49 405.97V407.4Z" fill="#B7B6E3"/>
<path d="M235.78 384.92V386.35L226.02 391.99L221.85 403.73L215.49 407.4V405.97L221.09 402.74L225.26 391L235.78 384.92Z" fill="#919DD6"/>
<path d="M236.48 411.65L232.35 409.25L236.52 397.51L240.65 399.9L236.48 411.65Z" fill="#C4C3EC"/>
<path d="M240.65 399.9L236.52 397.51L247.04 391.43L251.17 393.83L240.65 399.9Z" fill="#E4E3EE"/>
<path d="M230.88 414.88L226.75 412.48L232.35 409.25L236.48 411.65L230.88 414.88Z" fill="#E4E3EE"/>
<path d="M230.88 416.31L226.76 413.91L226.75 412.48L230.88 414.88V416.31Z" fill="#B7B6E3"/>
<path d="M251.17 393.83V395.26L241.41 400.9L237.24 412.64L230.88 416.31V414.88L236.48 411.65L240.65 399.9L251.17 393.83Z" fill="#919DD6"/>
<path d="M252.06 420.5L247.94 418.1L252.11 406.35L256.23 408.75L252.06 420.5Z" fill="#C4C3EC"/>
<path d="M256.23 408.75L252.11 406.35L262.63 400.28L266.75 402.68L256.23 408.75Z" fill="#E4E3EE"/>
<path d="M246.46 423.73L242.34 421.33L247.94 418.1L252.06 420.5L246.46 423.73Z" fill="#E4E3EE"/>
<path d="M246.47 425.16L242.34 422.76V421.33L246.46 423.73L246.47 425.16Z" fill="#B7B6E3"/>
<path d="M266.75 402.68L266.76 404.11L257 409.74L252.83 421.49L246.47 425.16L246.46 423.73L252.06 420.5L256.23 408.75L266.75 402.68Z" fill="#919DD6"/>
<path d="M267.35 429.42L263.22 427.02L267.39 415.28L271.52 417.68L267.35 429.42Z" fill="#C4C3EC"/>
<path d="M271.52 417.68L267.39 415.28L277.91 409.2L282.04 411.6L271.52 417.68Z" fill="#E4E3EE"/>
<path d="M261.75 432.65L257.62 430.25L263.22 427.02L267.35 429.42L261.75 432.65Z" fill="#E4E3EE"/>
<path d="M261.75 434.08L257.63 431.69L257.62 430.25L261.75 432.65V434.08Z" fill="#B7B6E3"/>
<path d="M282.04 411.6V413.03L272.28 418.67L268.11 430.41L261.75 434.08V432.65L267.35 429.42L271.52 417.68L282.04 411.6Z" fill="#919DD6"/>
<path d="M330.67 356.72L327.36 358.63L286.64 382.14V331.13L330.67 356.72Z" fill="#D4D5F0"/>
<path d="M286.64 331.13V382.14L286.35 382.31L245.63 358.64L242.32 356.72L286.64 331.13Z" fill="#C4C3EC"/>
<path d="M245.63 358.64L286.35 382.31L327.36 358.63L286.64 334.96L245.63 358.64Z" fill="#05D4F5"/>
<path d="M245.63 358.64L286.35 382.31L327.36 358.63L286.64 334.96L245.63 358.64Z" fill="#05D4F5"/>
<path d="M264.48 355.11L264.49 357.59L269.32 360.39L269.31 357.92L264.48 355.11Z" fill="#D4D5F0"/>
<path d="M269.31 357.92L269.32 360.39L290.92 347.92V345.45L269.31 357.92Z" fill="#C4C3EC"/>
<path d="M264.48 355.11L269.31 357.92L290.92 345.45L286.08 342.64L264.48 355.11Z" fill="#EEEFF2"/>
<path d="M288.52 359.19V361.66C289.79 361.31 291.01 360.98 292.17 360.67C293.33 360.36 294.4 360.08 295.39 359.83C296.38 359.58 297.24 359.36 297.99 359.17C298.74 358.98 299.33 358.83 299.77 358.73V356.26C299.33 356.36 298.74 356.51 297.99 356.7C297.24 356.89 296.37 357.11 295.39 357.36C294.4 357.61 293.33 357.89 292.17 358.2C291.01 358.51 289.8 358.85 288.53 359.19H288.52Z" fill="#1393F2"/>
<mask id="mask0_30_62" style="mask-type:luminance" maskUnits="userSpaceOnUse" x="288" y="356" width="12" height="6">
<path d="M288.52 359.19V361.66C289.79 361.31 291.01 360.98 292.17 360.67C293.33 360.36 294.4 360.08 295.39 359.83C296.38 359.58 297.24 359.36 297.99 359.17C298.74 358.98 299.33 358.83 299.77 358.73V356.26C299.33 356.36 298.74 356.51 297.99 356.7C297.24 356.89 296.37 357.11 295.39 357.36C294.4 357.61 293.33 357.89 292.17 358.2C291.01 358.51 289.8 358.85 288.53 359.19H288.52Z" fill="white"/>
</mask>
<g mask="url(#mask0_30_62)">
<path d="M288.52 359.19V361.66C289.79 361.31 291.01 360.98 292.17 360.67C293.33 360.36 294.4 360.08 295.39 359.83C296.38 359.58 297.24 359.36 297.99 359.17C298.74 358.98 299.33 358.83 299.77 358.73V356.26C299.33 356.36 298.74 356.51 297.99 356.7C297.24 356.89 296.37 357.11 295.39 357.36C294.4 357.61 293.33 357.89 292.17 358.2C291.01 358.51 289.8 358.85 288.53 359.19H288.52Z" fill="#C4C3EC"/>
</g>
<path d="M280.33 361.64V364.11C281.4 363.81 282.47 363.52 283.52 363.22V360.75C282.46 361.05 281.4 361.34 280.33 361.64Z" fill="#1393F2"/>
<mask id="mask1_30_62" style="mask-type:luminance" maskUnits="userSpaceOnUse" x="280" y="360" width="4" height="5">
<path d="M280.33 361.64V364.11C281.4 363.81 282.47 363.52 283.52 363.22V360.75C282.46 361.05 281.4 361.34 280.33 361.64Z" fill="white"/>
</mask>
<g mask="url(#mask1_30_62)">
<path d="M280.33 361.64V364.11C281.4 363.81 282.47 363.52 283.52 363.22V360.75C282.46 361.05 281.4 361.34 280.33 361.64Z" fill="#C4C3EC"/>
</g>
<path d="M277.24 362.53V365C278.24 364.71 279.26 364.41 280.33 364.11V361.64C279.26 361.94 278.23 362.23 277.24 362.53Z" fill="#1393F2"/>
<mask id="mask2_30_62" style="mask-type:luminance" maskUnits="userSpaceOnUse" x="277" y="361" width="4" height="4">
<path d="M277.24 362.53V365C278.24 364.71 279.26 364.41 280.33 364.11V361.64C279.26 361.94 278.23 362.23 277.24 362.53Z" fill="white"/>
</mask>
<g mask="url(#mask2_30_62)">
<path d="M277.24 362.53V365C278.24 364.71 279.26 364.41 280.33 364.11V361.64C279.26 361.94 278.23 362.23 277.24 362.53Z" fill="#C4C3EC"/>
</g>
<path d="M272.07 359.52L272.08 362L277.25 365L277.24 362.53L272.07 359.52Z" fill="#D4D5F0"/>
<path d="M283.51 360.76L283.52 363.23L291.9 368.1L291.89 365.63L283.51 360.76Z" fill="#D4D5F0"/>
<path d="M293.81 372.16V374.63C295.34 372.82 296.72 371.13 297.97 369.57C299.22 368.01 300.37 366.52 301.42 365.11C302.47 363.7 303.45 362.34 304.34 361.05C305.23 359.75 306.07 358.46 306.84 357.18V354.71C306.06 355.99 305.23 357.29 304.33 358.58C303.43 359.88 302.46 361.23 301.41 362.64C300.36 364.05 299.21 365.54 297.96 367.1C296.71 368.66 295.33 370.35 293.81 372.16Z" fill="#1393F2"/>
<mask id="mask3_30_62" style="mask-type:luminance" maskUnits="userSpaceOnUse" x="293" y="354" width="14" height="21">
<path d="M293.81 372.16V374.63C295.34 372.82 296.72 371.13 297.97 369.57C299.22 368.01 300.37 366.52 301.42 365.11C302.47 363.7 303.45 362.34 304.34 361.05C305.23 359.75 306.07 358.46 306.84 357.18V354.71C306.06 355.99 305.23 357.29 304.33 358.58C303.43 359.88 302.46 361.23 301.41 362.64C300.36 364.05 299.21 365.54 297.96 367.1C296.71 368.66 295.33 370.35 293.81 372.16Z" fill="white"/>
</mask>
<g mask="url(#mask3_30_62)">
<path d="M293.81 372.16V374.63C295.34 372.82 296.72 371.13 297.97 369.57C299.22 368.01 300.37 366.52 301.42 365.11C302.47 363.7 303.45 362.34 304.34 361.05C305.23 359.75 306.07 358.46 306.84 357.18V354.71C306.06 355.99 305.23 357.29 304.33 358.58C303.43 359.88 302.46 361.23 301.41 362.64C300.36 364.05 299.21 365.54 297.96 367.1C296.71 368.66 295.33 370.35 293.81 372.16Z" fill="#C4C3EC"/>
</g>
<path d="M288.79 369.24L288.8 371.71L293.82 374.63L293.81 372.16L288.79 369.24Z" fill="#D4D5F0"/>
<path d="M280.33 361.64C281.4 361.34 282.46 361.05 283.51 360.75L291.89 365.62C291.37 366.23 290.86 366.85 290.34 367.46C289.82 368.08 289.3 368.67 288.79 369.23L293.81 372.15C295.33 370.34 296.71 368.65 297.96 367.09C299.21 365.53 300.36 364.04 301.41 362.63C302.46 361.22 303.44 359.86 304.33 358.57C305.22 357.27 306.06 355.98 306.83 354.7L302.25 352.04C300.05 352.49 297.82 352.98 295.57 353.48C293.32 353.99 290.97 354.54 288.53 355.15C286.09 355.75 283.52 356.42 280.82 357.13C278.12 357.85 275.2 358.64 272.07 359.52L277.24 362.53C278.23 362.24 279.26 361.94 280.32 361.64H280.33ZM294.66 362.75L288.52 359.18C289.79 358.83 291 358.5 292.16 358.19C293.32 357.88 294.39 357.6 295.38 357.35C296.37 357.1 297.23 356.88 297.98 356.69C298.73 356.5 299.32 356.35 299.76 356.25C299.55 356.49 299.28 356.83 298.95 357.26C298.62 357.69 298.23 358.19 297.79 358.75C297.35 359.31 296.86 359.94 296.34 360.62C295.82 361.3 295.26 362.01 294.66 362.75Z" fill="#EEEFF2"/>
<path d="M286.02 459.56L432.37 375.06L286.96 290.56L140.61 375.05L286.02 459.55V459.56ZM428.49 375.06L286.03 457.31L144.49 375.06L286.95 292.81L428.48 375.06H428.49Z" fill="#05D4F5"/>
<path d="M409.67 387.04L420.49 393.29C420.65 393.38 420.85 393.38 421 393.29L432.1 386.88L468.12 407.68L471.48 409.62C471.56 409.67 471.65 409.69 471.74 409.69C471.92 409.69 472.09 409.6 472.18 409.43C472.32 409.19 472.24 408.87 471.99 408.73L469.16 407.1L432.36 385.85C432.2 385.76 432.01 385.76 431.85 385.85L420.75 392.26L410.7 386.46L409.67 387.05V387.04Z" fill="#05D4F5"/>
<path d="M322.41 436.43L324.12 437.41L333.97 443.1C334.13 443.19 334.32 443.19 334.48 443.1L345.57 436.69L359.58 444.78L360.61 445.37L381.89 457.66L384.96 459.43C385.04 459.48 385.13 459.5 385.22 459.5C385.4 459.5 385.57 459.41 385.66 459.24C385.8 458.99 385.72 458.68 385.47 458.54L382.74 456.96L361.64 444.78L360.61 444.19L345.83 435.66C345.67 435.57 345.48 435.57 345.32 435.66L334.23 442.07L325.15 436.83L323.44 435.84L322.41 436.43Z" fill="#05D4F5"/>
<path d="M356.09 416.99L357.8 417.98L367.37 423.51C367.53 423.6 367.72 423.6 367.88 423.51L378.97 417.1L393.25 425.34L394.28 425.93L414.73 437.74L418.35 439.83C418.43 439.87 418.52 439.9 418.61 439.9C418.79 439.9 418.96 439.81 419.05 439.64C419.19 439.39 419.11 439.08 418.86 438.94L415.55 437.03L395.3 425.34L394.27 424.75L379.22 416.06C379.06 415.97 378.87 415.97 378.71 416.06L367.62 422.47L358.82 417.39L357.11 416.4L356.08 416.99H356.09Z" fill="#05D4F5"/>
<path d="M382.95 401.48L384.66 402.47L420.85 423.36L423.57 424.93C423.65 424.98 423.74 425 423.83 425C424.01 425 424.18 424.91 424.27 424.74C424.41 424.5 424.33 424.18 424.08 424.04L421.82 422.73L385.68 401.86L383.97 400.87L382.94 401.46L382.95 401.48Z" fill="#05D4F5"/>
<path d="M310.03 443.58L311.74 444.56L347.43 465.17L350.19 466.76C350.27 466.8 350.36 466.83 350.45 466.83C350.63 466.83 350.8 466.74 350.89 466.57C351.03 466.32 350.95 466.01 350.7 465.87L348.46 464.58L312.76 443.96L311.05 442.97L310.02 443.56L310.03 443.58Z" fill="#05D4F5"/>
<path d="M344.57 423.64L346.28 424.63L370.39 438.55L371.42 439.14L382.35 445.45L385.21 447.1C385.29 447.15 385.38 447.17 385.47 447.17C385.65 447.17 385.82 447.08 385.91 446.91C386.05 446.67 385.97 446.35 385.72 446.21L383.35 444.84L372.43 438.54L371.41 437.95L347.3 424.03L345.59 423.04L344.56 423.63L344.57 423.64Z" fill="#05D4F5"/>
<path d="M345.09 453.15L358.61 460.95L362.39 463.13L362.9 462.24L359.51 460.28L347.14 453.15L360.61 445.37L361.63 444.78L371.41 439.14L372.43 438.54L394.28 425.93L395.3 425.34L404.19 420.21L379.24 405.6L377.54 404.6L376.52 405.19L378.21 406.19L402.15 420.2L394.28 424.75L393.25 425.34L371.41 437.95L370.38 438.54L360.61 444.19L359.58 444.78L345.09 453.15Z" fill="#05D4F5"/>
<path d="M468.55 407.38C467.02 408.26 467.02 409.69 468.55 410.57C470.08 411.45 472.55 411.45 474.08 410.57C475.61 409.69 475.61 408.26 474.08 407.38C472.55 406.5 470.08 406.5 468.55 407.38Z" fill="#05D4F5"/>
<path d="M401.38 405.84C401.38 406.02 401.48 406.19 401.64 406.28L432.65 424.19L435.49 425.83C435.57 425.88 435.66 425.9 435.75 425.9C435.93 425.9 436.1 425.81 436.19 425.64C436.33 425.4 436.25 425.08 436 424.94L433.64 423.58L402.91 405.84L414.32 399.25C414.48 399.16 414.58 398.99 414.58 398.81C414.58 398.63 414.48 398.45 414.32 398.37L403.03 391.85L401.32 390.86L400.29 391.45L402 392.44L413.03 398.81L401.62 405.39C401.46 405.48 401.36 405.65 401.36 405.83L401.38 405.84Z" fill="#05D4F5"/>
<path d="M433.18 423.81C431.65 424.69 431.65 426.12 433.18 427C434.71 427.88 437.18 427.88 438.71 427C440.24 426.12 440.24 424.69 438.71 423.81C437.18 422.93 434.71 422.93 433.18 423.81Z" fill="#05D4F5"/>
<path d="M303.35 461.75C303.35 461.93 303.45 462.1 303.61 462.19L333.81 479.63L337.46 481.74C337.54 481.78 337.63 481.81 337.72 481.81C337.89 481.81 338.07 481.72 338.16 481.55C338.3 481.3 338.21 480.99 337.97 480.85L334.79 479.02L304.88 461.75L316.29 455.16C316.45 455.07 316.55 454.9 316.55 454.72C316.55 454.54 316.45 454.37 316.29 454.28L305.61 448.11L303.9 447.13L302.88 447.72L304.59 448.7L315.01 454.72L303.6 461.31C303.44 461.4 303.34 461.57 303.34 461.75H303.35Z" fill="#05D4F5"/>
<path d="M334.36 479.23C332.83 480.11 332.83 481.54 334.36 482.42C335.89 483.3 338.36 483.3 339.89 482.42C341.42 481.54 341.42 480.11 339.89 479.23C338.36 478.35 335.89 478.35 334.36 479.23Z" fill="#05D4F5"/>
<path d="M421.44 422.93C419.91 423.81 419.91 425.24 421.44 426.12C422.97 427 425.44 427 426.97 426.12C428.5 425.24 428.5 423.81 426.97 422.93C425.44 422.05 422.97 422.05 421.44 422.93Z" fill="#05D4F5"/>
<path d="M415.57 437.02C414.04 437.9 414.04 439.33 415.57 440.21C417.1 441.09 419.57 441.09 421.1 440.21C422.63 439.33 422.63 437.9 421.1 437.02C419.57 436.14 417.1 436.14 415.57 437.02Z" fill="#05D4F5"/>
<path d="M382.84 445.1C381.31 445.98 381.31 447.41 382.84 448.29C384.37 449.17 386.84 449.17 388.37 448.29C389.9 447.41 389.9 445.98 388.37 445.1C386.84 444.22 384.37 444.22 382.84 445.1Z" fill="#05D4F5"/>
<path d="M382.69 456.98C381.16 457.86 381.16 459.29 382.69 460.17C384.22 461.05 386.69 461.05 388.22 460.17C389.75 459.29 389.75 457.86 388.22 456.98C386.69 456.1 384.22 456.1 382.69 456.98Z" fill="#05D4F5"/>
<path d="M359.35 460.36C357.82 461.24 357.82 462.67 359.35 463.55C360.88 464.43 363.35 464.43 364.88 463.55C366.41 462.67 366.41 461.24 364.88 460.36C363.35 459.48 360.88 459.48 359.35 460.36Z" fill="#05D4F5"/>
<path d="M347.86 464.88C346.33 465.76 346.33 467.19 347.86 468.07C349.39 468.95 351.86 468.95 353.39 468.07C354.92 467.19 354.92 465.76 353.39 464.88C351.86 464 349.39 464 347.86 464.88Z" fill="#05D4F5"/>
<path d="M132.55 422.37C132.65 422.53 132.82 422.63 132.99 422.63C133.08 422.63 133.16 422.61 133.25 422.56L136.37 420.76L167.1 403.01C167.26 402.92 167.36 402.75 167.36 402.57C167.36 402.39 167.26 402.22 167.1 402.13L155.69 395.54L165.93 389.63L167.64 388.65L166.62 388.06L164.91 389.04L154.41 395.1C154.25 395.19 154.15 395.36 154.15 395.54C154.15 395.72 154.25 395.89 154.41 395.98L165.82 402.57L135.22 420.24L132.74 421.67C132.49 421.81 132.41 422.12 132.55 422.37Z" fill="#05D4F5"/>
<path d="M238.71 483.82C238.81 483.98 238.98 484.08 239.15 484.08C239.24 484.08 239.32 484.06 239.41 484.01L242.43 482.27L273.26 464.47C273.42 464.38 273.52 464.21 273.52 464.03C273.52 463.85 273.42 463.68 273.26 463.59L261.85 457L271.87 451.21L273.57 450.23L272.55 449.64L270.85 450.62L260.57 456.56C260.41 456.65 260.31 456.82 260.31 457C260.31 457.18 260.41 457.35 260.57 457.44L271.98 464.03L241.24 481.78L238.9 483.13C238.65 483.27 238.57 483.58 238.71 483.83V483.82Z" fill="#05D4F5"/>
<path d="M186.37 450.82C186.47 450.98 186.64 451.08 186.81 451.08C186.9 451.08 186.99 451.06 187.07 451.01L189.9 449.37L213.23 435.9C213.39 435.81 213.49 435.64 213.49 435.46C213.49 435.28 213.39 435.11 213.23 435.02L204.58 430.03L212.37 425.45L213.39 424.85L219.92 421.01L221.61 420.01L220.59 419.42L218.9 420.41L212.37 424.25L211.35 424.85L203.3 429.58C203.14 429.67 203.05 429.84 203.05 430.02C203.05 430.2 203.15 430.37 203.31 430.46L211.95 435.45L188.52 448.98L186.56 450.11C186.32 450.25 186.23 450.56 186.37 450.81V450.82Z" fill="#05D4F5"/>
<path d="M144 449.47C144.1 449.63 144.27 449.73 144.44 449.73C144.53 449.73 144.61 449.71 144.7 449.66L147.72 447.92L190.25 423.36C190.41 423.27 190.51 423.1 190.51 422.92C190.51 422.74 190.41 422.57 190.25 422.48L174.63 413.46L190.82 404.11L192.53 403.13L191.51 402.54L189.8 403.52L173.34 413.02C173.18 413.11 173.08 413.28 173.08 413.46C173.08 413.64 173.18 413.81 173.34 413.9L188.96 422.92L146.53 447.42L144.19 448.77C143.94 448.91 143.86 449.22 144 449.47Z" fill="#05D4F5"/>
<path d="M189.64 462.29C189.73 462.45 189.91 462.55 190.08 462.55C190.17 462.55 190.25 462.53 190.34 462.48L192.94 460.98L223.04 443.6L239.65 453.19C239.81 453.28 240.01 453.28 240.16 453.19L257.79 443.01L259.49 442.03L258.47 441.44L256.77 442.42L239.9 452.16L223.29 442.57C223.13 442.48 222.93 442.48 222.78 442.57L191.91 460.39L189.83 461.59C189.58 461.73 189.5 462.04 189.64 462.29Z" fill="#05D4F5"/>
<path d="M144.46 421.48C144.56 421.64 144.73 421.74 144.9 421.74C144.99 421.74 145.07 421.72 145.16 421.67L148.09 419.98L183.23 399.69L184.94 398.7L183.92 398.11L182.21 399.09L146.99 419.42L144.65 420.77C144.4 420.91 144.32 421.22 144.46 421.47V421.48Z" fill="#05D4F5"/>
<path d="M117.3 405.57C117.4 405.73 117.57 405.83 117.74 405.83C117.83 405.83 117.91 405.81 118 405.76L121.22 403.9L155.96 383.84L157.67 382.86L156.65 382.27L154.94 383.25L120.24 403.29L117.49 404.88C117.24 405.02 117.16 405.33 117.3 405.58V405.57Z" fill="#05D4F5"/>
<path d="M176.03 439.44C176.13 439.6 176.3 439.7 176.47 439.7C176.56 439.7 176.65 439.68 176.73 439.63L179.91 437.8L206.84 422.25L207.87 421.66L214.48 417.84L216.19 416.86L215.17 416.27L213.46 417.25L206.85 421.07L205.82 421.66L178.99 437.15L176.23 438.74C175.99 438.88 175.9 439.19 176.04 439.44H176.03Z" fill="#05D4F5"/>
<path d="M227 469.16C227.09 469.32 227.27 469.42 227.44 469.42C227.53 469.42 227.61 469.4 227.7 469.35L230.65 467.65L265.52 447.52L267.22 446.54L266.2 445.95L264.5 446.93L229.55 467.1L227.18 468.47C226.93 468.61 226.85 468.93 226.99 469.17L227 469.16Z" fill="#05D4F5"/>
<path d="M189.4 412.18L205.81 421.66L206.84 422.25L211.35 424.85L212.37 425.44L232.95 437.32L236.02 439.1L236.54 438.21L233.8 436.63L213.39 424.85L212.36 424.25L207.86 421.66L206.84 421.06L191.45 412.18L198.11 408.33L199.82 407.35L198.8 406.75L197.09 407.74L189.4 412.18Z" fill="#05D4F5"/>
<path d="M236.83 482.22C235.3 483.1 235.3 484.53 236.83 485.41C238.36 486.29 240.83 486.29 242.36 485.41C243.89 484.53 243.89 483.1 242.36 482.22C240.83 481.34 238.36 481.34 236.83 482.22Z" fill="#05D4F5"/>
<path d="M224.82 467.44C223.29 468.32 223.29 469.75 224.82 470.63C226.35 471.51 228.82 471.51 230.35 470.63C231.88 469.75 231.88 468.32 230.35 467.44C228.82 466.56 226.35 466.56 224.82 467.44Z" fill="#05D4F5"/>
<path d="M233.75 436.66C232.22 437.54 232.22 438.97 233.75 439.85C235.28 440.73 237.75 440.73 239.28 439.85C240.81 438.97 240.81 437.54 239.28 436.66C237.75 435.78 235.28 435.78 233.75 436.66Z" fill="#05D4F5"/>
<path d="M186.96 460.67C185.43 461.55 185.43 462.98 186.96 463.86C188.49 464.74 190.96 464.74 192.49 463.86C194.02 462.98 194.02 461.55 192.49 460.67C190.96 459.79 188.49 459.79 186.96 460.67Z" fill="#05D4F5"/>
<path d="M184.8 449.58C183.27 450.46 183.27 451.89 184.8 452.77C186.33 453.65 188.8 453.65 190.33 452.77C191.86 451.89 191.86 450.46 190.33 449.58C188.8 448.7 186.33 448.7 184.8 449.58Z" fill="#05D4F5"/>
<path d="M173.71 437.28C172.18 438.16 172.18 439.59 173.71 440.47C175.24 441.35 177.71 441.35 179.24 440.47C180.77 439.59 180.77 438.16 179.24 437.28C177.71 436.4 175.24 436.4 173.71 437.28Z" fill="#05D4F5"/>
<path d="M142.09 447.85C140.56 448.73 140.56 450.16 142.09 451.04C143.62 451.92 146.09 451.92 147.62 451.04C149.15 450.16 149.15 448.73 147.62 447.85C146.09 446.97 143.62 446.97 142.09 447.85Z" fill="#05D4F5"/>
<path d="M142.26 419.78C140.73 420.66 140.73 422.09 142.26 422.97C143.79 423.85 146.26 423.85 147.79 422.97C149.32 422.09 149.32 420.66 147.79 419.78C146.26 418.9 143.79 418.9 142.26 419.78Z" fill="#05D4F5"/>
<path d="M130.65 420.65C129.12 421.53 129.12 422.96 130.65 423.84C132.18 424.72 134.65 424.72 136.18 423.84C137.71 422.96 137.71 421.53 136.18 420.65C134.65 419.77 132.18 419.77 130.65 420.65Z" fill="#05D4F5"/>
<path d="M115.15 403.49C113.62 404.37 113.62 405.8 115.15 406.68C116.68 407.56 119.15 407.56 120.68 406.68C122.21 405.8 122.21 404.37 120.68 403.49C119.15 402.61 116.68 402.61 115.15 403.49Z" fill="#05D4F5"/>
<path d="M323.9 280.22C323.9 280.4 323.99 280.57 324.15 280.66L332.27 285.52L333.28 286.13L343.47 292.24L344.48 292.84L354.04 298.57L327.19 314.07L325.48 315.05L326.5 315.64L328.21 314.66L355.3 299.02C355.46 298.93 355.55 298.76 355.56 298.58C355.56 298.4 355.47 298.23 355.31 298.14L345.5 292.26L344.49 291.65L334.3 285.54L333.29 284.93L325.43 280.22L340.5 271.52L343.05 270.05C343.29 269.91 343.38 269.6 343.24 269.35C343.1 269.1 342.79 269.02 342.54 269.16L339.52 270.9L324.17 279.76C324.01 279.85 323.92 280.02 323.91 280.2L323.9 280.22Z" fill="#05D4F5"/>
<path d="M415.7 366.5L442.07 351.28L430.66 344.69C430.5 344.6 430.4 344.43 430.4 344.25C430.4 344.07 430.5 343.9 430.66 343.81L446.15 334.87L449.03 333.21C449.28 333.07 449.59 333.15 449.73 333.4C449.87 333.64 449.79 333.96 449.54 334.1L447.35 335.37L431.94 344.26L443.35 350.85C443.51 350.94 443.61 351.11 443.61 351.29C443.61 351.47 443.51 351.64 443.35 351.73L416.72 367.1L415.7 366.51V366.5Z" fill="#05D4F5"/>
<path d="M362.05 336.31L363.07 336.9L364.78 335.92L383.12 325.33C383.28 325.24 383.38 325.07 383.38 324.89C383.38 324.71 383.28 324.53 383.12 324.45L374.47 319.45L395.64 307L397.65 305.82C397.9 305.68 397.98 305.36 397.83 305.12C397.69 304.88 397.37 304.8 397.13 304.94L394.57 306.45L373.2 319.02C373.04 319.11 372.94 319.28 372.95 319.46C372.95 319.64 373.05 319.81 373.21 319.9L381.85 324.89L363.77 335.33L362.06 336.32L362.05 336.31Z" fill="#05D4F5"/>
<path d="M339.13 322.99L340.15 323.58L341.86 322.6L370.39 306.13C370.55 306.04 370.65 305.87 370.65 305.69C370.65 305.51 370.55 305.34 370.39 305.25L357.8 297.98L373.8 288.74L377.18 286.78C377.43 286.64 377.51 286.33 377.37 286.08C377.23 285.83 376.92 285.75 376.67 285.89L372.81 288.12L356.52 297.53C356.36 297.62 356.26 297.79 356.26 297.97C356.26 298.15 356.36 298.32 356.52 298.41L369.11 305.68L340.84 322L339.13 322.99Z" fill="#05D4F5"/>
<path d="M374.96 343.81L375.98 344.4L377.69 343.42L396.32 332.67L409.64 340.36C409.8 340.45 409.99 340.45 410.15 340.36L428.17 329.96L430.39 328.68C430.64 328.54 430.72 328.23 430.58 327.98C430.44 327.73 430.13 327.65 429.88 327.79L427.23 329.32L409.9 339.33L396.58 331.64C396.42 331.55 396.22 331.55 396.07 331.64L376.68 342.83L374.97 343.81H374.96Z" fill="#05D4F5"/>
<path d="M314.75 308.82L315.77 309.41L317.48 308.42L344.48 292.83L345.5 292.25L353.86 287.42L356.03 286.17C356.28 286.03 356.36 285.72 356.22 285.47C356.08 285.22 355.77 285.14 355.52 285.28L352.72 286.9L344.49 291.65L343.47 292.24L316.45 307.84L314.74 308.83L314.75 308.82Z" fill="#05D4F5"/>
<path d="M303.36 302.2L304.38 302.79L306.09 301.81L333.28 286.13L334.3 285.54L365.75 267.4L367.38 266.46C367.63 266.32 367.71 266.01 367.57 265.76C367.43 265.51 367.12 265.43 366.87 265.57L364.48 266.95L333.3 284.94L332.28 285.53L305.08 301.22L303.37 302.2H303.36Z" fill="#05D4F5"/>
<path d="M344.67 326.21L345.69 326.8L347.4 325.82L383.44 305.01L385.85 303.61C386.1 303.47 386.18 303.15 386.04 302.91C385.9 302.66 385.59 302.58 385.34 302.72L382.32 304.46L346.38 325.21L344.67 326.19V326.21Z" fill="#05D4F5"/>
<path d="M395.33 355.65L396.35 356.24L398.06 355.26L414.15 345.97L418.01 343.74C418.25 343.6 418.34 343.29 418.19 343.04C418.05 342.8 417.74 342.71 417.49 342.85L413.07 345.4L397.03 354.66L395.32 355.64L395.33 355.65Z" fill="#05D4F5"/>
<path d="M446.23 331.71C444.7 332.59 444.7 334.02 446.23 334.9C447.76 335.78 450.23 335.78 451.76 334.9C453.29 334.02 453.29 332.59 451.76 331.71C450.23 330.83 447.76 330.83 446.23 331.71Z" fill="#05D4F5"/>
<path d="M413.43 342.45C411.9 343.33 411.9 344.76 413.43 345.64C414.96 346.52 417.43 346.52 418.96 345.64C420.49 344.76 420.49 343.33 418.96 342.45C417.43 341.57 414.96 341.57 413.43 342.45Z" fill="#05D4F5"/>
<path d="M427.85 326.6C426.32 327.48 426.32 328.91 427.85 329.79C429.38 330.67 431.85 330.67 433.38 329.79C434.91 328.91 434.91 327.48 433.38 326.6C431.85 325.72 429.38 325.72 427.85 326.6Z" fill="#05D4F5"/>
<path d="M394.91 303.47C393.38 304.35 393.38 305.78 394.91 306.66C396.44 307.54 398.91 307.54 400.44 306.66C401.97 305.78 401.97 304.35 400.44 303.47C398.91 302.59 396.44 302.59 394.91 303.47Z" fill="#05D4F5"/>
<path d="M421.79 319.02C420.26 319.9 420.26 321.33 421.79 322.21C423.32 323.09 425.79 323.09 427.32 322.21C428.85 321.33 428.85 319.9 427.32 319.02C425.79 318.14 423.32 318.14 421.79 319.02Z" fill="#05D4F5"/>
<path d="M368.21 339.89L369.23 340.48L370.94 339.5L413.61 314.86L421.35 319.33L424.27 321.01C424.51 321.15 424.83 321.07 424.97 320.82C425.11 320.58 425.02 320.26 424.78 320.12L422.38 318.74L413.87 313.83C413.71 313.74 413.52 313.74 413.36 313.83L369.92 338.91L368.21 339.89Z" fill="#05D4F5"/>
<path d="M296.91 298.45L297.93 299.04L299.64 298.06L318.18 287.35C318.34 287.26 318.44 287.09 318.44 286.91C318.44 286.73 318.34 286.56 318.18 286.47L309.53 281.47L330.7 269.02L332.71 267.84C332.95 267.7 333.03 267.38 332.89 267.14C332.75 266.89 332.43 266.81 332.19 266.96L329.63 268.46L308.26 281.04C308.1 281.13 308.01 281.3 308.01 281.48C308.01 281.66 308.11 281.83 308.27 281.92L316.91 286.91L298.62 297.47L296.91 298.45Z" fill="#05D4F5"/>
<path d="M329.98 265.5C328.45 266.38 328.45 267.81 329.98 268.69C331.51 269.57 333.98 269.57 335.51 268.69C337.04 267.81 337.04 266.38 335.51 265.5C333.98 264.62 331.51 264.62 329.98 265.5Z" fill="#05D4F5"/>
<path d="M382.57 301.44C381.04 302.32 381.04 303.75 382.57 304.63C384.1 305.51 386.57 305.51 388.1 304.63C389.63 303.75 389.63 302.32 388.1 301.44C386.57 300.56 384.1 300.56 382.57 301.44Z" fill="#05D4F5"/>
<path d="M373.34 285.31C371.81 286.19 371.81 287.62 373.34 288.5C374.87 289.38 377.34 289.38 378.87 288.5C380.4 287.62 380.4 286.19 378.87 285.31C377.34 284.43 374.87 284.43 373.34 285.31Z" fill="#05D4F5"/>
<path d="M364.35 263.7C362.82 264.58 362.82 266.01 364.35 266.89C365.88 267.77 368.35 267.77 369.88 266.89C371.41 266.01 371.41 264.58 369.88 263.7C368.35 262.82 365.88 262.82 364.35 263.7Z" fill="#05D4F5"/>
<path d="M340.07 268.13C338.54 269.01 338.54 270.44 340.07 271.32C341.6 272.2 344.07 272.2 345.6 271.32C347.13 270.44 347.13 269.01 345.6 268.13C344.07 267.25 341.6 267.25 340.07 268.13Z" fill="#05D4F5"/>
<path d="M352.91 283.83C351.38 284.71 351.38 286.14 352.91 287.02C354.44 287.9 356.91 287.9 358.44 287.02C359.97 286.14 359.97 284.71 358.44 283.83C356.91 282.95 354.44 282.95 352.91 283.83Z" fill="#05D4F5"/>
<path d="M151.28 339.02C151.28 339.2 151.38 339.37 151.54 339.46L177.02 354.17L178.73 355.15L179.76 354.56L178.05 353.57L152.81 339L175.97 325.12L176.97 324.51L182.68 321.09C182.84 321 182.93 320.83 182.93 320.65C182.93 320.47 182.83 320.3 182.67 320.21L167.32 311.35L164.3 309.61C164.06 309.47 163.74 309.55 163.6 309.8C163.46 310.05 163.54 310.36 163.78 310.5L166.33 311.97L181.4 320.67L175.95 323.94L174.94 324.54L151.52 338.57C151.37 338.67 151.27 338.83 151.27 339.01L151.28 339.02Z" fill="#05D4F5"/>
<path d="M175.69 306.7L177.7 307.88L198.87 320.33L190.22 325.32C190.06 325.41 189.96 325.58 189.96 325.76C189.96 325.94 190.06 326.11 190.22 326.2L207.83 336.37L209.54 337.35L210.56 336.76L208.85 335.78L191.5 325.76L200.14 320.77C200.3 320.68 200.4 320.51 200.4 320.33C200.4 320.15 200.3 319.98 200.15 319.89L178.78 307.31L176.22 305.81C175.97 305.67 175.66 305.75 175.52 305.99C175.38 306.23 175.46 306.55 175.7 306.69L175.69 306.7Z" fill="#05D4F5"/>
<path d="M197.56 284.48L200.85 286.38L217.37 295.92L204.49 303.35C204.33 303.44 204.23 303.61 204.23 303.79C204.23 303.97 204.33 304.14 204.49 304.23L233.99 321.26L235.7 322.25L236.73 321.66L235.02 320.68L205.77 303.79L218.65 296.36C218.81 296.27 218.91 296.1 218.91 295.92C218.91 295.74 218.81 295.57 218.65 295.48L201.74 285.72L198.06 283.6C197.81 283.46 197.5 283.54 197.36 283.79C197.22 284.04 197.3 284.35 197.55 284.49L197.56 284.48Z" fill="#05D4F5"/>
<path d="M123.73 349.15L125.93 350.42L140.8 359C140.96 359.09 141.15 359.09 141.31 359L152.5 352.54L166.17 360.43L167.88 361.42L168.91 360.83L167.2 359.85L152.76 351.52C152.6 351.43 152.4 351.43 152.25 351.52L141.06 357.98L127.06 349.9L124.25 348.28C124 348.14 123.69 348.22 123.55 348.47C123.41 348.72 123.49 349.03 123.74 349.17L123.73 349.15Z" fill="#05D4F5"/>
<path d="M218.33 287.23L220.5 288.48L255.63 308.77L257.34 309.75L258.37 309.16L256.66 308.18L221.63 287.96L218.83 286.34C218.58 286.2 218.27 286.28 218.13 286.53C217.99 286.78 218.07 287.09 218.32 287.23H218.33Z" fill="#05D4F5"/>
<path d="M205.95 267.36L207.58 268.3L266.7 302.39L268.41 303.37L269.44 302.78L267.73 301.8L208.86 267.85L206.47 266.47C206.22 266.33 205.91 266.41 205.77 266.66C205.63 266.91 205.71 267.22 205.96 267.36H205.95Z" fill="#05D4F5"/>
<path d="M187.48 304.51L189.9 305.9L225.26 326.32L226.97 327.3L228 326.71L226.29 325.73L191.02 305.37L187.99 303.62C187.74 303.48 187.43 303.56 187.29 303.81C187.15 304.06 187.23 304.37 187.48 304.51Z" fill="#05D4F5"/>
<path d="M225.79 304.05L229.65 306.28L244.82 315.04L246.53 316.02L247.56 315.43L245.85 314.45L230.73 305.72L226.32 303.17C226.07 303.03 225.76 303.11 225.62 303.36C225.48 303.61 225.56 303.92 225.81 304.06L225.79 304.05Z" fill="#05D4F5"/>
<path d="M230.36 302.75C231.89 303.63 231.89 305.06 230.36 305.94C228.83 306.82 226.36 306.82 224.83 305.94C223.3 305.06 223.3 303.63 224.83 302.75C226.36 301.87 228.83 301.87 230.36 302.75Z" fill="#05D4F5"/>
<path d="M126.83 346.83C128.36 347.71 128.36 349.14 126.83 350.02C125.3 350.9 122.83 350.9 121.3 350.02C119.77 349.14 119.77 347.71 121.3 346.83C122.83 345.95 125.3 345.95 126.83 346.83Z" fill="#05D4F5"/>
<path d="M178.42 304.36C179.95 305.24 179.95 306.67 178.42 307.55C176.89 308.43 174.42 308.43 172.89 307.55C171.36 306.67 171.36 305.24 172.89 304.36C174.42 303.48 176.89 303.48 178.42 304.36Z" fill="#05D4F5"/>
<path d="M151.54 319.91C153.07 320.79 153.07 322.22 151.54 323.1C150.01 323.98 147.54 323.98 146.01 323.1C144.48 322.22 144.48 320.79 146.01 319.91C147.54 319.03 150.01 319.03 151.54 319.91Z" fill="#05D4F5"/>
<path d="M148.37 321.71C148.51 321.96 148.82 322.04 149.07 321.9L151.98 320.22L159.72 315.75L174.94 324.54L175.96 325.13L201.63 339.95L203.34 340.93L204.36 340.34L202.65 339.36L176.96 324.52L175.94 323.94L159.96 314.72C159.8 314.63 159.6 314.63 159.45 314.72L150.94 319.64L148.54 321.02C148.3 321.16 148.21 321.47 148.35 321.72L148.37 321.71Z" fill="#05D4F5"/>
<path d="M240.62 268.73L242.62 269.91L263.79 282.36L255.14 287.35C254.98 287.44 254.88 287.61 254.88 287.79C254.88 287.97 254.98 288.14 255.14 288.23L273.17 298.64L274.88 299.62L281.31 303.33C281.39 303.38 281.48 303.4 281.56 303.4C281.74 303.4 281.91 303.31 282 303.14C282.14 302.89 282.06 302.58 281.82 302.44L275.91 299.02L274.2 298.04L256.43 287.78L265.07 282.79C265.23 282.7 265.32 282.53 265.33 282.35C265.33 282.17 265.23 282 265.08 281.91L243.71 269.33L241.15 267.83C240.91 267.69 240.59 267.77 240.45 268.01C240.31 268.26 240.39 268.57 240.63 268.71L240.62 268.73Z" fill="#05D4F5"/>
<path d="M243.35 266.39C244.88 267.27 244.88 268.7 243.35 269.58C241.82 270.46 239.35 270.46 237.82 269.58C236.29 268.7 236.29 267.27 237.82 266.39C239.35 265.51 241.82 265.51 243.35 266.39Z" fill="#05D4F5"/>
<path d="M190.76 302.33C192.29 303.21 192.29 304.64 190.76 305.52C189.23 306.4 186.76 306.4 185.23 305.52C183.7 304.64 183.7 303.21 185.23 302.33C186.76 301.45 189.23 301.45 190.76 302.33Z" fill="#05D4F5"/>
<path d="M201.03 283.09C202.56 283.97 202.56 285.4 201.03 286.28C199.5 287.16 197.03 287.16 195.5 286.28C193.97 285.4 193.97 283.97 195.5 283.09C197.03 282.21 199.5 282.21 201.03 283.09Z" fill="#05D4F5"/>
<path d="M208.98 264.59C210.51 265.47 210.51 266.9 208.98 267.78C207.45 268.66 204.98 268.66 203.45 267.78C201.92 266.9 201.92 265.47 203.45 264.59C204.98 263.71 207.45 263.71 208.98 264.59Z" fill="#05D4F5"/>
<path d="M166.77 308.57C168.3 309.45 168.3 310.88 166.77 311.76C165.24 312.64 162.77 312.64 161.24 311.76C159.71 310.88 159.71 309.45 161.24 308.57C162.77 307.69 165.24 307.69 166.77 308.57Z" fill="#05D4F5"/>
<path d="M221.45 284.89C222.98 285.77 222.98 287.2 221.45 288.08C219.92 288.96 217.45 288.96 215.92 288.08C214.39 287.2 214.39 285.77 215.92 284.89C217.45 284.01 219.92 284.01 221.45 284.89Z" fill="#05D4F5"/>
<path d="M338.95 302.24L347.44 297.31C348.37 296.77 349.06 295.7 349.33 294.01L340.84 298.94C340.57 300.63 339.89 301.7 338.95 302.24Z" fill="#DAD9E8"/>
<mask id="mask4_30_62" style="mask-type:luminance" maskUnits="userSpaceOnUse" x="338" y="294" width="12" height="9">
<path d="M338.95 302.24L347.44 297.31C348.37 296.77 349.06 295.7 349.33 294.01L340.84 298.94C340.57 300.63 339.89 301.7 338.95 302.24Z" fill="white"/>
</mask>
<g mask="url(#mask4_30_62)">
<path d="M338.95 302.24L347.44 297.31C348.37 296.77 349.05 295.71 349.32 294.04L340.83 298.97C340.56 300.64 339.88 301.7 338.95 302.24Z" fill="#DAD9E8"/>
<path d="M340.83 298.97L349.32 294.04C349.32 294.04 349.32 294.02 349.32 294.01L340.83 298.94C340.83 298.94 340.83 298.96 340.83 298.97Z" fill="#DAD9E8"/>
</g>
<path d="M331.65 213.66L323.16 218.59C325.64 217.15 329.07 217.33 332.92 219.55L341.41 214.62C337.56 212.4 334.13 212.22 331.65 213.66Z" fill="#DAD9E8"/>
<mask id="mask5_30_62" style="mask-type:luminance" maskUnits="userSpaceOnUse" x="323" y="212" width="19" height="8">
<path d="M331.65 213.66L323.16 218.59C325.64 217.15 329.07 217.33 332.92 219.55L341.41 214.62C337.56 212.4 334.13 212.22 331.65 213.66Z" fill="white"/>
</mask>
<g mask="url(#mask5_30_62)">
<path d="M332.91 219.55L341.4 214.62C337.55 212.4 334.12 212.22 331.64 213.66L323.15 218.59C325.63 217.15 329.06 217.33 332.91 219.55Z" fill="#DAD9E8"/>
</g>
<path d="M340.84 298.94L349.33 294L357.49 242.24L349 247.18L340.84 298.94Z" fill="#DAD9E8"/>
<path d="M335.5 221.05L343.99 216.11L341.4 214.62L332.91 219.55L335.5 221.05Z" fill="#EBEBF1"/>
<path d="M349 247.18L357.49 242.25C358.88 233.44 352.45 221 343.99 216.12L335.5 221.05C343.96 225.93 350.39 238.37 349 247.18Z" fill="#EBEBF1"/>
<mask id="mask6_30_62" style="mask-type:luminance" maskUnits="userSpaceOnUse" x="335" y="216" width="23" height="32">
<path d="M349 247.18L357.49 242.25C358.88 233.44 352.45 221 343.99 216.12L335.5 221.05C343.96 225.93 350.39 238.37 349 247.18Z" fill="white"/>
</mask>
<g mask="url(#mask6_30_62)">
<path d="M349 247.18L357.49 242.25C357.91 239.57 357.61 236.56 356.75 233.52L348.26 238.45C349.12 241.48 349.42 244.5 349 247.18Z" fill="#EBEBF1"/>
<path d="M348.26 238.45L356.75 233.52C355.78 230.1 354.11 226.66 351.95 223.64L343.46 228.57C345.61 231.59 347.29 235.03 348.26 238.45Z" fill="#EBEBF1"/>
<path d="M343.46 228.57L351.95 223.64C350.3 221.33 348.38 219.27 346.28 217.65L337.79 222.58C339.89 224.2 341.82 226.26 343.46 228.57Z" fill="#EBEBF1"/>
<path d="M337.79 222.58L346.28 217.65C345.54 217.08 344.78 216.56 343.99 216.11L335.5 221.04C336.28 221.49 337.04 222.01 337.79 222.58Z" fill="#EBEBF1"/>
</g>
<path d="M332.91 219.55C324.45 214.67 317.98 219.66 319.31 230.04L327.15 291.03C327.77 295.85 330.87 299.87 333.97 301.67C337.08 303.46 340.19 303.03 340.83 298.94L348.99 247.18C350.38 238.37 343.95 225.93 335.49 221.05L332.9 219.56L332.91 219.55Z" fill="#C4C3EC"/>
<path d="M323.52 219.99L317.61 223.43C320.12 221.97 323.6 222.18 327.43 224.39L333.34 220.95C329.5 218.73 326.03 218.53 323.52 219.99Z" fill="#05D4F5"/>
<mask id="mask7_30_62" style="mask-type:luminance" maskUnits="userSpaceOnUse" x="317" y="219" width="17" height="6">
<path d="M323.52 219.99L317.61 223.43C320.12 221.97 323.6 222.18 327.43 224.39L333.34 220.95C329.5 218.73 326.03 218.53 323.52 219.99Z" fill="white"/>
</mask>
<g mask="url(#mask7_30_62)">
<path d="M327.43 224.39L333.34 220.95C329.5 218.73 326.03 218.53 323.52 219.99L317.61 223.43C320.12 221.97 323.6 222.18 327.43 224.39Z" fill="#05D4F5"/>
</g>
<path d="M326.06 230.17C320.84 227.15 316.58 229.58 316.56 235.59C316.54 241.59 320.77 248.92 326 251.93C331.22 254.95 335.49 252.52 335.5 246.52C335.52 240.52 331.28 233.18 326.06 230.17Z" fill="#05D4F5"/>
<path d="M337.17 257.09L343.08 253.65C345.56 252.21 347.1 249.15 347.11 244.79C347.13 236.03 340.97 225.35 333.34 220.94L327.43 224.38C335.06 228.78 341.22 239.46 341.2 248.23C341.19 252.58 339.65 255.64 337.17 257.08V257.09Z" fill="#05D4F5"/>
<mask id="mask8_30_62" style="mask-type:luminance" maskUnits="userSpaceOnUse" x="327" y="220" width="21" height="38">
<path d="M337.17 257.09L343.08 253.65C345.56 252.21 347.1 249.15 347.11 244.79C347.13 236.03 340.97 225.35 333.34 220.94L327.43 224.38C335.06 228.78 341.22 239.46 341.2 248.23C341.19 252.58 339.65 255.64 337.17 257.08V257.09Z" fill="white"/>
</mask>
<g mask="url(#mask8_30_62)">
<path d="M337.17 257.09L343.08 253.65C345.28 252.37 346.74 249.81 347.05 246.21L341.14 249.65C340.83 253.25 339.37 255.81 337.17 257.09Z" fill="#05D4F5"/>
<path d="M341.14 249.65L347.05 246.21C347.09 245.76 347.11 245.28 347.11 244.8C347.13 237.24 342.55 228.26 336.4 223.11L330.49 226.55C336.64 231.7 341.22 240.68 341.2 248.24C341.2 248.73 341.18 249.2 341.14 249.65Z" fill="#05D4F5"/>
<path d="M330.49 226.55L336.4 223.11C335.42 222.29 334.39 221.56 333.34 220.95L327.43 224.39C328.48 225 329.5 225.72 330.49 226.55Z" fill="#05D4F5"/>
</g>
<path d="M326.06 230.17L327.43 224.39C319.8 219.99 313.6 223.52 313.58 232.29C313.56 241.05 319.72 251.73 327.34 256.13C334.97 260.53 341.17 257 341.2 248.24C341.22 239.48 335.06 228.8 327.43 224.39L326.06 230.17C331.28 233.18 335.52 240.52 335.5 246.52C335.49 252.52 331.22 254.95 326 251.93C320.78 248.92 316.54 241.59 316.56 235.59C316.57 229.58 320.83 227.15 326.06 230.17Z" fill="#05D4F5"/>
<mask id="mask9_30_62" style="mask-type:luminance" maskUnits="userSpaceOnUse" x="313" y="222" width="29" height="37">
<path d="M326.06 230.17L327.43 224.39C319.8 219.99 313.6 223.52 313.58 232.29C313.56 241.05 319.72 251.73 327.34 256.13C334.97 260.53 341.17 257 341.2 248.24C341.22 239.48 335.06 228.8 327.43 224.39L326.06 230.17C331.28 233.18 335.52 240.52 335.5 246.52C335.49 252.52 331.22 254.95 326 251.93C320.78 248.92 316.54 241.59 316.56 235.59C316.57 229.58 320.83 227.15 326.06 230.17Z" fill="white"/>
</mask>
<g mask="url(#mask9_30_62)">
<path d="M326.06 230.17L327.43 224.39C319.8 219.99 313.6 223.52 313.58 232.29C313.56 241.05 319.72 251.73 327.34 256.13C334.97 260.53 341.17 257 341.2 248.24C341.22 239.48 335.06 228.8 327.43 224.39L326.06 230.17C331.28 233.18 335.52 240.52 335.5 246.52C335.49 252.52 331.22 254.95 326 251.93C320.78 248.92 316.54 241.59 316.56 235.59C316.57 229.58 320.83 227.15 326.06 230.17Z" fill="#12B0F3"/>
</g>
<path d="M342.193 124.687L326.864 174.732L329.742 175.613L345.071 125.568L342.193 124.687Z" fill="#171C29"/>
<path d="M310.04 332.3C324.1 323.61 327.27 311.95 328.62 306.97C327.53 311.75 323.79 316.5 317.41 320.34C301.47 329.93 275.08 330.2 258.46 320.94C251.33 316.96 247.15 311.87 245.98 306.6C247.06 310.73 248.69 316.98 254.92 324.2C257.28 326.93 262.48 332.02 270.79 335.35C283.43 340.42 298.83 339.22 310.04 332.3Z" fill="#919DD6"/>
<path d="M258.19 218.35C242.65 227.7 243.18 242.61 259.38 251.64C275.58 260.67 301.3 260.41 316.84 251.06C332.38 241.71 331.85 226.8 315.65 217.77C299.45 208.74 273.73 209 258.19 218.35Z" fill="#E4E3EE"/>
<path d="M328.65 306.83L341.18 252.08C339.72 258.46 334.86 264.64 326.57 269.63C305.86 282.1 271.57 282.44 249.98 270.4C240.71 265.23 235.29 258.62 233.76 251.77L245.98 306.59C247.16 311.86 251.33 316.95 258.46 320.93C275.07 330.19 301.47 329.93 317.41 320.33C323.79 316.49 327.53 311.74 328.65 306.82V306.83Z" fill="#B7B6E3"/>
<path d="M322.31 216.9C301.15 205.41 271.19 205.75 251.07 217.71C252.86 216.63 255.37 216.71 258.19 218.28C273.73 208.93 299.46 208.67 315.65 217.7C331.85 226.73 332.38 241.63 316.84 250.99C301.3 260.34 275.57 260.6 259.38 251.57C243.18 242.54 242.65 227.64 258.19 218.28C255.37 216.71 252.86 216.63 251.07 217.71C246.86 220.43 240.49 224.55 236.06 233.21C231.93 241.29 233.18 248.54 233.72 251.64C235.29 258.67 240.71 265.28 249.98 270.44C271.57 282.48 305.86 282.13 326.57 269.67C334.85 264.69 339.71 258.52 341.18 252.14C341.7 249.36 342.19 246.73 341.69 242.61C341.07 237.45 339.01 233.55 338.92 233.39C337.38 230.51 333.28 222.86 322.32 216.91L322.31 216.9Z" fill="#DAD9E8"/>
<path d="M264.96 150.77C253.04 157.94 253.45 169.38 265.87 176.3C278.29 183.23 298.03 183.03 309.95 175.85C321.87 168.68 321.46 157.25 309.04 150.32C296.62 143.39 276.88 143.59 264.96 150.77Z" fill="#EBEBF1"/>
<path d="M325.7 236.3C344.89 224.43 349.1 208.72 349.25 197.63C349.22 206.54 343.5 215.44 332.02 222.35C308.36 236.59 269.18 236.99 244.52 223.24C231.83 216.16 225.45 206.72 225.48 197.27C225.69 203.07 226.01 206.07 228.34 212.57C230.17 217.66 233.43 221.99 235.19 224.32C236.01 225.41 243.62 235.1 258.31 240.83C283.79 250.75 310.51 245.71 325.7 236.31V236.3Z" fill="#B7B6E3"/>
<path d="M323.93 148.53C312.69 142.41 300.08 139.4 286.44 139.58C272.43 139.76 259.85 143.09 249.06 149.49C253.1 147.06 258.74 147.29 264.97 150.77C276.89 143.6 296.62 143.4 309.05 150.32C321.47 157.25 321.88 168.68 309.96 175.85C298.04 183.02 278.31 183.22 265.88 176.3C253.46 169.37 253.05 157.94 264.97 150.77C258.74 147.29 253.1 147.06 249.06 149.49C243.37 153.16 226.06 164.34 225.51 188.16C225.48 197.6 231.86 207.05 244.55 214.13C269.21 227.88 308.39 227.49 332.05 213.25C343.53 206.34 349.25 197.43 349.28 188.53C349.15 185.07 349.01 181.14 347.49 176.35C345.7 170.67 344.15 168.23 341.59 164.19C339.57 161 333.28 153.63 323.93 148.54V148.53Z" fill="#E4E3EE"/>
<path d="M275.21 223.47C295.25 225.83 316.85 222.39 332.04 213.24C343.46 206.37 349.18 197.52 349.27 188.67C349.29 182.92 346.92 177.61 342.93 173.36C342.85 181.3 337.72 189.23 327.48 195.4C313.85 203.6 294.48 206.68 276.51 204.57C275.71 211.07 275.23 217.72 275.21 223.47Z" fill="#042F8F"/>
<path d="M349.25 197.63L349.28 188.53C349.25 197.44 343.53 206.34 332.05 213.25C308.39 227.49 269.21 227.89 244.55 214.13C231.86 207.05 225.48 197.61 225.51 188.16L225.48 197.26C225.45 206.7 231.83 216.15 244.52 223.23C269.18 236.98 308.36 236.59 332.02 222.34C343.5 215.43 349.22 206.52 349.25 197.62V197.63Z" fill="#DAD9E8"/>
<path d="M339.22 197.9C340.44 201.34 342.52 201.57 343.96 198.42C346.37 193.17 343.92 186.83 340.79 187.73C340.22 187.89 339.92 188.22 339.61 188.57C337.61 191.42 338.69 196.38 339.22 197.9Z" fill="#05D4F5"/>
<path d="M304.14 213.46C305.05 218.62 311.54 219.49 314.82 214.89C318.24 210.09 314.49 204.55 309.7 205.15C309.52 205.17 309.29 205.22 309.12 205.25C304.9 206.47 303.67 210.79 304.14 213.46Z" fill="#05D4F5"/>
<path d="M246.34 191.26C246.34 188.2 248.49 186.97 251.13 188.49C253.77 190.01 255.92 193.73 255.92 196.79C255.92 199.85 253.77 201.08 251.13 199.56C248.48 198.03 246.34 194.32 246.34 191.26Z" fill="#1393F2"/>
<path d="M250.51 195.6C250.97 195.6 251.42 195.39 251.72 195C252.22 194.33 252.08 193.39 251.42 192.89L216.49 166.67C215.83 166.17 214.88 166.3 214.38 166.97C213.88 167.63 214.02 168.58 214.68 169.08L249.61 195.3C249.88 195.5 250.2 195.6 250.51 195.6Z" fill="#171C29"/>
<path d="M206.71 166C206.71 161.51 210.35 157.88 214.83 157.88C219.31 157.88 222.95 161.52 222.95 166C222.95 170.48 219.31 174.12 214.83 174.12C210.35 174.12 206.71 170.48 206.71 166Z" fill="#1393F2"/>
<path d="M336.24 125.12C336.24 120.63 339.88 117 344.36 117C348.84 117 352.48 120.64 352.48 125.12C352.48 129.6 348.84 133.24 344.36 133.24C339.88 133.24 336.24 129.6 336.24 125.12Z" fill="#1393F2"/>
<path d="M239.15 249.15L233.24 252.59C235.75 251.13 239.23 251.34 243.06 253.55L248.97 250.11C245.13 247.89 241.66 247.69 239.15 249.15Z" fill="#05D4F5"/>
<mask id="mask10_30_62" style="mask-type:luminance" maskUnits="userSpaceOnUse" x="233" y="248" width="16" height="6">
<path d="M239.15 249.15L233.24 252.59C235.75 251.13 239.23 251.34 243.06 253.55L248.97 250.11C245.13 247.89 241.66 247.69 239.15 249.15Z" fill="white"/>
</mask>
<g mask="url(#mask10_30_62)">
<path d="M243.06 253.55L248.97 250.11C245.13 247.89 241.66 247.69 239.15 249.15L233.24 252.59C235.75 251.13 239.23 251.34 243.06 253.55Z" fill="#05D4F5"/>
</g>
<path d="M241.69 259.33C236.47 256.31 232.21 258.74 232.19 264.75C232.17 270.75 236.4 278.08 241.63 281.09C246.86 284.11 251.12 281.68 251.13 275.68C251.15 269.68 246.91 262.34 241.69 259.33Z" fill="#05D4F5"/>
<path d="M252.8 286.25L258.71 282.81C261.19 281.37 262.73 278.31 262.74 273.96C262.76 265.2 256.6 254.52 248.97 250.11L243.06 253.55C250.69 257.95 256.85 268.63 256.83 277.4C256.82 281.75 255.28 284.81 252.8 286.25Z" fill="#05D4F5"/>
<mask id="mask11_30_62" style="mask-type:luminance" maskUnits="userSpaceOnUse" x="243" y="250" width="20" height="37">
<path d="M252.8 286.25L258.71 282.81C261.19 281.37 262.73 278.31 262.74 273.96C262.76 265.2 256.6 254.52 248.97 250.11L243.06 253.55C250.69 257.95 256.85 268.63 256.83 277.4C256.82 281.75 255.28 284.81 252.8 286.25Z" fill="white"/>
</mask>
<g mask="url(#mask11_30_62)">
<path d="M252.8 286.25L258.71 282.81C260.91 281.53 262.37 278.97 262.68 275.37L256.77 278.81C256.46 282.41 255 284.97 252.8 286.25Z" fill="#05D4F5"/>
<path d="M256.77 278.81L262.68 275.37C262.72 274.92 262.74 274.44 262.74 273.96C262.76 266.4 258.18 257.42 252.03 252.27L246.12 255.71C252.27 260.86 256.85 269.84 256.83 277.4C256.83 277.89 256.81 278.36 256.77 278.81Z" fill="#05D4F5"/>
<path d="M246.12 255.7L252.03 252.26C251.05 251.44 250.02 250.71 248.97 250.1L243.06 253.54C244.11 254.15 245.13 254.87 246.12 255.7Z" fill="#05D4F5"/>
</g>
<path d="M241.69 259.33L243.06 253.55C235.43 249.15 229.23 252.69 229.21 261.45C229.19 270.21 235.35 280.88 242.97 285.29C250.6 289.69 256.8 286.16 256.83 277.4C256.85 268.64 250.69 257.96 243.06 253.55L241.69 259.33C246.91 262.34 251.15 269.68 251.13 275.68C251.12 281.68 246.85 284.11 241.63 281.09C236.41 278.08 232.17 270.75 232.19 264.75C232.2 258.74 236.46 256.31 241.69 259.33Z" fill="#05D4F5"/>
<mask id="mask12_30_62" style="mask-type:luminance" maskUnits="userSpaceOnUse" x="229" y="251" width="28" height="37">
<path d="M241.69 259.33L243.06 253.55C235.43 249.15 229.23 252.69 229.21 261.45C229.19 270.21 235.35 280.88 242.97 285.29C250.6 289.69 256.8 286.16 256.83 277.4C256.85 268.64 250.69 257.96 243.06 253.55L241.69 259.33C246.91 262.34 251.15 269.68 251.13 275.68C251.12 281.68 246.85 284.11 241.63 281.09C236.41 278.08 232.17 270.75 232.19 264.75C232.2 258.74 236.46 256.31 241.69 259.33Z" fill="white"/>
</mask>
<g mask="url(#mask12_30_62)">
<path d="M241.69 259.33L243.06 253.55C235.43 249.15 229.23 252.69 229.21 261.45C229.19 270.21 235.35 280.88 242.97 285.29C250.6 289.69 256.8 286.16 256.83 277.4C256.85 268.64 250.69 257.96 243.06 253.55L241.69 259.33C246.91 262.34 251.15 269.68 251.13 275.68C251.12 281.68 246.85 284.11 241.63 281.09C236.41 278.08 232.17 270.75 232.19 264.75C232.2 258.74 236.46 256.31 241.69 259.33Z" fill="#12B0F3"/>
</g>
<path d="M239.08 340.39L247.57 335.46C248.5 334.92 249.19 333.85 249.46 332.16L240.97 337.09C240.7 338.78 240.02 339.85 239.08 340.39Z" fill="#DAD9E8"/>
<mask id="mask13_30_62" style="mask-type:luminance" maskUnits="userSpaceOnUse" x="239" y="332" width="11" height="9">
<path d="M239.08 340.39L247.57 335.46C248.5 334.92 249.19 333.85 249.46 332.16L240.97 337.09C240.7 338.78 240.02 339.85 239.08 340.39Z" fill="white"/>
</mask>
<g mask="url(#mask13_30_62)">
<path d="M239.08 340.39L247.57 335.46C248.5 334.92 249.18 333.86 249.45 332.19L240.96 337.12C240.69 338.79 240.01 339.85 239.08 340.39Z" fill="#DAD9E8"/>
<path d="M240.97 337.12L249.46 332.19C249.46 332.19 249.46 332.17 249.46 332.16L240.97 337.09C240.97 337.09 240.97 337.11 240.97 337.12Z" fill="#DAD9E8"/>
</g>
<path d="M231.78 251.81L223.29 256.74C225.77 255.3 229.2 255.48 233.05 257.7L241.54 252.77C237.69 250.55 234.26 250.37 231.78 251.81Z" fill="#DAD9E8"/>
<mask id="mask14_30_62" style="mask-type:luminance" maskUnits="userSpaceOnUse" x="223" y="250" width="19" height="8">
<path d="M231.78 251.81L223.29 256.74C225.77 255.3 229.2 255.48 233.05 257.7L241.54 252.77C237.69 250.55 234.26 250.37 231.78 251.81Z" fill="white"/>
</mask>
<g mask="url(#mask14_30_62)">
<path d="M233.05 257.7L241.54 252.77C237.69 250.55 234.26 250.37 231.78 251.81L223.29 256.74C225.77 255.3 229.2 255.48 233.05 257.7Z" fill="#DAD9E8"/>
</g>
<path d="M240.97 337.09L249.46 332.15L257.62 280.39L249.13 285.33L240.97 337.09Z" fill="#DAD9E8"/>
<path d="M235.64 259.2L244.13 254.26L241.54 252.77L233.05 257.7L235.64 259.2Z" fill="#EBEBF1"/>
<path d="M249.13 285.33L257.62 280.4C259.01 271.59 252.58 259.15 244.12 254.27L235.63 259.2C244.09 264.08 250.52 276.52 249.13 285.33Z" fill="#EBEBF1"/>
<mask id="mask15_30_62" style="mask-type:luminance" maskUnits="userSpaceOnUse" x="235" y="254" width="23" height="32">
<path d="M249.13 285.33L257.62 280.4C259.01 271.59 252.58 259.15 244.12 254.27L235.63 259.2C244.09 264.08 250.52 276.52 249.13 285.33Z" fill="white"/>
</mask>
<g mask="url(#mask15_30_62)">
<path d="M249.13 285.33L257.62 280.4C258.04 277.72 257.74 274.71 256.88 271.67L248.39 276.6C249.25 279.63 249.55 282.65 249.13 285.33Z" fill="#EBEBF1"/>
<path d="M248.39 276.6L256.88 271.67C255.91 268.25 254.24 264.81 252.08 261.79L243.59 266.72C245.74 269.74 247.42 273.18 248.39 276.6Z" fill="#EBEBF1"/>
<path d="M243.6 266.72L252.09 261.79C250.44 259.48 248.52 257.42 246.42 255.8L237.93 260.73C240.03 262.35 241.96 264.41 243.6 266.72Z" fill="#EBEBF1"/>
<path d="M237.92 260.73L246.41 255.8C245.67 255.23 244.9 254.71 244.12 254.26L235.63 259.19C236.41 259.64 237.17 260.16 237.92 260.73Z" fill="#EBEBF1"/>
</g>
<path d="M233.05 257.7C224.59 252.82 218.12 257.81 219.45 268.19L227.29 329.18C227.91 334 231.01 338.02 234.11 339.82C237.22 341.61 240.33 341.18 240.97 337.09L249.13 285.33C250.52 276.52 244.09 264.09 235.63 259.2L233.04 257.71L233.05 257.7Z" fill="#C4C3EC"/>
</g>
<path d="M532.298 216C525.098 213.2 523.964 195.5 524.298 187C515.131 189.667 497.498 197.2 500.298 206C503.798 217 541.298 219.5 532.298 216Z" fill="#D7ECFD"/>
<rect x="377" y="121" width="148" height="88" rx="10" fill="#D7ECFD"/>
<rect x="266" width="182" height="108" rx="10" fill="#E9E7FF"/>
<path d="M258.39 116C265.59 113.2 266.724 95.5 266.39 87C275.557 89.6667 293.19 97.2 290.39 106C286.89 117 249.39 119.5 258.39 116Z" fill="#E9E7FF"/>
<path d="M2.57031 573.047V583H1.25098V573.047H2.57031ZM6.53613 577.073V583H5.26465V575.604H6.46777L6.53613 577.073ZM6.27637 579.021L5.68848 579.001C5.69303 578.495 5.75911 578.028 5.88672 577.6C6.01432 577.167 6.20345 576.791 6.4541 576.472C6.70475 576.153 7.01693 575.907 7.39062 575.733C7.76432 575.556 8.19727 575.467 8.68945 575.467C9.03581 575.467 9.35482 575.517 9.64648 575.617C9.93815 575.713 10.1911 575.866 10.4053 576.075C10.6195 576.285 10.7858 576.554 10.9043 576.882C11.0228 577.21 11.082 577.606 11.082 578.071V583H9.81738V578.133C9.81738 577.745 9.7513 577.436 9.61914 577.203C9.49154 576.971 9.30924 576.802 9.07227 576.697C8.83529 576.588 8.55729 576.533 8.23828 576.533C7.86458 576.533 7.55241 576.599 7.30176 576.731C7.05111 576.864 6.85059 577.046 6.7002 577.278C6.5498 577.511 6.44043 577.777 6.37207 578.078C6.30827 578.374 6.27637 578.689 6.27637 579.021ZM11.0684 578.324L10.2207 578.584C10.2253 578.178 10.2913 577.789 10.4189 577.415C10.5511 577.041 10.7402 576.709 10.9863 576.417C11.237 576.125 11.5446 575.895 11.9092 575.727C12.2738 575.553 12.6908 575.467 13.1602 575.467C13.5566 575.467 13.9076 575.519 14.2129 575.624C14.5228 575.729 14.7826 575.891 14.9922 576.109C15.2064 576.324 15.3682 576.599 15.4775 576.937C15.5869 577.274 15.6416 577.675 15.6416 578.14V583H14.3701V578.126C14.3701 577.711 14.304 577.39 14.1719 577.162C14.0443 576.93 13.862 576.768 13.625 576.677C13.3926 576.581 13.1146 576.533 12.791 576.533C12.513 576.533 12.2669 576.581 12.0527 576.677C11.8385 576.772 11.6585 576.905 11.5127 577.073C11.3669 577.237 11.2552 577.426 11.1777 577.641C11.1048 577.855 11.0684 578.083 11.0684 578.324ZM22.417 581.735V577.928C22.417 577.636 22.3577 577.383 22.2393 577.169C22.1253 576.95 21.9521 576.782 21.7197 576.663C21.4873 576.545 21.2002 576.485 20.8584 576.485C20.5394 576.485 20.2591 576.54 20.0176 576.649C19.7806 576.759 19.5938 576.902 19.457 577.08C19.3249 577.258 19.2588 577.449 19.2588 577.654H17.9941C17.9941 577.39 18.0625 577.128 18.1992 576.868C18.3359 576.608 18.5319 576.374 18.7871 576.164C19.0469 575.95 19.3568 575.781 19.7168 575.658C20.0814 575.531 20.487 575.467 20.9336 575.467C21.4714 575.467 21.9453 575.558 22.3555 575.74C22.7702 575.923 23.0938 576.198 23.3262 576.567C23.5632 576.932 23.6816 577.39 23.6816 577.941V581.387C23.6816 581.633 23.7021 581.895 23.7432 582.173C23.7887 582.451 23.8548 582.69 23.9414 582.891V583H22.6221C22.5583 582.854 22.5081 582.66 22.4717 582.419C22.4352 582.173 22.417 581.945 22.417 581.735ZM22.6357 578.516L22.6494 579.404H21.3711C21.0111 579.404 20.6898 579.434 20.4072 579.493C20.1247 579.548 19.8877 579.632 19.6963 579.746C19.5049 579.86 19.359 580.004 19.2588 580.177C19.1585 580.345 19.1084 580.544 19.1084 580.771C19.1084 581.004 19.1608 581.216 19.2656 581.407C19.3704 581.599 19.5277 581.751 19.7373 581.865C19.9515 581.975 20.2135 582.029 20.5234 582.029C20.9108 582.029 21.2526 581.947 21.5488 581.783C21.8451 581.619 22.0798 581.419 22.2529 581.182C22.4307 580.945 22.5264 580.715 22.54 580.491L23.0801 581.1C23.0482 581.291 22.9616 581.503 22.8203 581.735C22.679 581.968 22.4899 582.191 22.2529 582.405C22.0205 582.615 21.7425 582.79 21.4189 582.932C21.0999 583.068 20.7399 583.137 20.3389 583.137C19.8376 583.137 19.3978 583.039 19.0195 582.843C18.6458 582.647 18.3542 582.385 18.1445 582.057C17.9395 581.724 17.8369 581.353 17.8369 580.942C17.8369 580.546 17.9144 580.197 18.0693 579.896C18.2243 579.591 18.4476 579.338 18.7393 579.138C19.0309 578.933 19.3818 578.778 19.792 578.673C20.2021 578.568 20.6602 578.516 21.166 578.516H22.6357ZM30.9629 575.604H32.1113V582.843C32.1113 583.494 31.9792 584.05 31.7148 584.511C31.4505 584.971 31.0814 585.32 30.6074 585.557C30.138 585.798 29.5957 585.919 28.9805 585.919C28.7253 585.919 28.4245 585.878 28.0781 585.796C27.7363 585.718 27.3991 585.584 27.0664 585.393C26.7383 585.206 26.4626 584.953 26.2393 584.634L26.9023 583.882C27.2122 584.256 27.5358 584.515 27.873 584.661C28.2148 584.807 28.5521 584.88 28.8848 584.88C29.2858 584.88 29.6322 584.805 29.9238 584.654C30.2155 584.504 30.4411 584.281 30.6006 583.984C30.7646 583.693 30.8467 583.333 30.8467 582.904V577.23L30.9629 575.604ZM25.8701 579.384V579.24C25.8701 578.675 25.9362 578.162 26.0684 577.702C26.2051 577.237 26.3988 576.839 26.6494 576.506C26.9046 576.173 27.2122 575.918 27.5723 575.74C27.9323 575.558 28.3379 575.467 28.7891 575.467C29.2539 575.467 29.6595 575.549 30.0059 575.713C30.3568 575.872 30.653 576.107 30.8945 576.417C31.1406 576.722 31.3343 577.091 31.4756 577.524C31.6169 577.957 31.7148 578.447 31.7695 578.994V579.623C31.7194 580.165 31.6214 580.653 31.4756 581.086C31.3343 581.519 31.1406 581.888 30.8945 582.193C30.653 582.499 30.3568 582.733 30.0059 582.897C29.6549 583.057 29.2448 583.137 28.7754 583.137C28.3333 583.137 27.9323 583.043 27.5723 582.856C27.2168 582.67 26.9115 582.408 26.6562 582.07C26.401 581.733 26.2051 581.337 26.0684 580.881C25.9362 580.421 25.8701 579.922 25.8701 579.384ZM27.1348 579.24V579.384C27.1348 579.753 27.1712 580.099 27.2441 580.423C27.3216 580.746 27.4378 581.031 27.5928 581.277C27.7523 581.523 27.9551 581.717 28.2012 581.858C28.4473 581.995 28.7412 582.063 29.083 582.063C29.5023 582.063 29.8486 581.975 30.1221 581.797C30.3955 581.619 30.612 581.384 30.7715 581.093C30.9355 580.801 31.0632 580.484 31.1543 580.143V578.495C31.1042 578.244 31.0267 578.003 30.9219 577.771C30.8216 577.534 30.6895 577.324 30.5254 577.142C30.3659 576.955 30.1676 576.807 29.9307 576.697C29.6937 576.588 29.4157 576.533 29.0967 576.533C28.7503 576.533 28.4518 576.606 28.2012 576.752C27.9551 576.893 27.7523 577.089 27.5928 577.34C27.4378 577.586 27.3216 577.873 27.2441 578.201C27.1712 578.525 27.1348 578.871 27.1348 579.24ZM37.6016 583.137C37.0866 583.137 36.6195 583.05 36.2002 582.877C35.7855 582.699 35.4277 582.451 35.127 582.132C34.8307 581.813 34.6029 581.435 34.4434 580.997C34.2839 580.56 34.2041 580.081 34.2041 579.562V579.274C34.2041 578.673 34.293 578.137 34.4707 577.668C34.6484 577.194 34.89 576.793 35.1953 576.465C35.5007 576.137 35.847 575.888 36.2344 575.72C36.6217 575.551 37.0228 575.467 37.4375 575.467C37.9661 575.467 38.4219 575.558 38.8047 575.74C39.1921 575.923 39.5088 576.178 39.7549 576.506C40.001 576.829 40.1833 577.212 40.3018 577.654C40.4202 578.092 40.4795 578.57 40.4795 579.09V579.657H34.9561V578.625H39.2148V578.529C39.1966 578.201 39.1283 577.882 39.0098 577.572C38.8958 577.262 38.7135 577.007 38.4629 576.807C38.2122 576.606 37.8704 576.506 37.4375 576.506C37.1504 576.506 36.8861 576.567 36.6445 576.69C36.403 576.809 36.1956 576.987 36.0225 577.224C35.8493 577.461 35.7148 577.75 35.6191 578.092C35.5234 578.434 35.4756 578.828 35.4756 579.274V579.562C35.4756 579.912 35.5234 580.243 35.6191 580.553C35.7194 580.858 35.863 581.127 36.0498 581.359C36.2412 581.592 36.4714 581.774 36.7402 581.906C37.0137 582.038 37.3236 582.104 37.6699 582.104C38.1165 582.104 38.4948 582.013 38.8047 581.831C39.1146 581.649 39.3857 581.405 39.6182 581.1L40.3838 581.708C40.2243 581.95 40.0215 582.18 39.7754 582.398C39.5293 582.617 39.2262 582.795 38.8662 582.932C38.5107 583.068 38.0892 583.137 37.6016 583.137ZM46.4219 572.5H47.6934V581.564L47.584 583H46.4219V572.5ZM52.6904 579.24V579.384C52.6904 579.922 52.6266 580.421 52.499 580.881C52.3714 581.337 52.1846 581.733 51.9385 582.07C51.6924 582.408 51.3916 582.67 51.0361 582.856C50.6807 583.043 50.2728 583.137 49.8125 583.137C49.3431 583.137 48.9307 583.057 48.5752 582.897C48.2243 582.733 47.9281 582.499 47.6865 582.193C47.445 581.888 47.2513 581.519 47.1055 581.086C46.9642 580.653 46.8662 580.165 46.8115 579.623V578.994C46.8662 578.447 46.9642 577.957 47.1055 577.524C47.2513 577.091 47.445 576.722 47.6865 576.417C47.9281 576.107 48.2243 575.872 48.5752 575.713C48.9261 575.549 49.334 575.467 49.7988 575.467C50.2637 575.467 50.6761 575.558 51.0361 575.74C51.3962 575.918 51.6969 576.173 51.9385 576.506C52.1846 576.839 52.3714 577.237 52.499 577.702C52.6266 578.162 52.6904 578.675 52.6904 579.24ZM51.4189 579.384V579.24C51.4189 578.871 51.3848 578.525 51.3164 578.201C51.248 577.873 51.1387 577.586 50.9883 577.34C50.8379 577.089 50.6396 576.893 50.3936 576.752C50.1475 576.606 49.8444 576.533 49.4844 576.533C49.1654 576.533 48.8874 576.588 48.6504 576.697C48.418 576.807 48.2197 576.955 48.0557 577.142C47.8916 577.324 47.7572 577.534 47.6523 577.771C47.5521 578.003 47.4769 578.244 47.4268 578.495V580.143C47.4997 580.462 47.6182 580.769 47.7822 581.065C47.9508 581.357 48.1742 581.596 48.4521 581.783C48.7347 581.97 49.0833 582.063 49.498 582.063C49.8398 582.063 50.1315 581.995 50.373 581.858C50.6191 581.717 50.8174 581.523 50.9678 581.277C51.1227 581.031 51.2367 580.746 51.3096 580.423C51.3825 580.099 51.4189 579.753 51.4189 579.384ZM56.7861 582.234L58.8438 575.604H60.1973L57.2305 584.142C57.1621 584.324 57.071 584.52 56.957 584.729C56.8477 584.944 56.7064 585.146 56.5332 585.338C56.36 585.529 56.1504 585.684 55.9043 585.803C55.6628 585.926 55.3734 585.987 55.0361 585.987C54.9359 585.987 54.8083 585.974 54.6533 585.946C54.4984 585.919 54.389 585.896 54.3252 585.878L54.3184 584.853C54.3548 584.857 54.4118 584.862 54.4893 584.866C54.5713 584.875 54.6283 584.88 54.6602 584.88C54.9473 584.88 55.1911 584.841 55.3916 584.764C55.5921 584.691 55.7607 584.565 55.8975 584.388C56.0387 584.215 56.1595 583.975 56.2598 583.67L56.7861 582.234ZM55.2754 575.604L57.1963 581.346L57.5244 582.679L56.6152 583.144L53.8945 575.604H55.2754ZM67.0693 577.073V583H65.7979V575.604H67.001L67.0693 577.073ZM66.8096 579.021L66.2217 579.001C66.2262 578.495 66.2923 578.028 66.4199 577.6C66.5475 577.167 66.7367 576.791 66.9873 576.472C67.238 576.153 67.5501 575.907 67.9238 575.733C68.2975 575.556 68.7305 575.467 69.2227 575.467C69.569 575.467 69.888 575.517 70.1797 575.617C70.4714 575.713 70.7243 575.866 70.9385 576.075C71.1527 576.285 71.319 576.554 71.4375 576.882C71.556 577.21 71.6152 577.606 71.6152 578.071V583H70.3506V578.133C70.3506 577.745 70.2845 577.436 70.1523 577.203C70.0247 576.971 69.8424 576.802 69.6055 576.697C69.3685 576.588 69.0905 576.533 68.7715 576.533C68.3978 576.533 68.0856 576.599 67.835 576.731C67.5843 576.864 67.3838 577.046 67.2334 577.278C67.083 577.511 66.9736 577.777 66.9053 578.078C66.8415 578.374 66.8096 578.689 66.8096 579.021ZM71.6016 578.324L70.7539 578.584C70.7585 578.178 70.8245 577.789 70.9521 577.415C71.0843 577.041 71.2734 576.709 71.5195 576.417C71.7702 576.125 72.0778 575.895 72.4424 575.727C72.807 575.553 73.224 575.467 73.6934 575.467C74.0898 575.467 74.4408 575.519 74.7461 575.624C75.056 575.729 75.3158 575.891 75.5254 576.109C75.7396 576.324 75.9014 576.599 76.0107 576.937C76.1201 577.274 76.1748 577.675 76.1748 578.14V583H74.9033V578.126C74.9033 577.711 74.8372 577.39 74.7051 577.162C74.5775 576.93 74.3952 576.768 74.1582 576.677C73.9258 576.581 73.6478 576.533 73.3242 576.533C73.0462 576.533 72.8001 576.581 72.5859 576.677C72.3717 576.772 72.1917 576.905 72.0459 577.073C71.9001 577.237 71.7884 577.426 71.7109 577.641C71.638 577.855 71.6016 578.083 71.6016 578.324ZM82.9502 581.735V577.928C82.9502 577.636 82.891 577.383 82.7725 577.169C82.6585 576.95 82.4854 576.782 82.2529 576.663C82.0205 576.545 81.7334 576.485 81.3916 576.485C81.0726 576.485 80.7923 576.54 80.5508 576.649C80.3138 576.759 80.127 576.902 79.9902 577.08C79.8581 577.258 79.792 577.449 79.792 577.654H78.5273C78.5273 577.39 78.5957 577.128 78.7324 576.868C78.8691 576.608 79.0651 576.374 79.3203 576.164C79.5801 575.95 79.89 575.781 80.25 575.658C80.6146 575.531 81.0202 575.467 81.4668 575.467C82.0046 575.467 82.4785 575.558 82.8887 575.74C83.3034 575.923 83.627 576.198 83.8594 576.567C84.0964 576.932 84.2148 577.39 84.2148 577.941V581.387C84.2148 581.633 84.2354 581.895 84.2764 582.173C84.3219 582.451 84.388 582.69 84.4746 582.891V583H83.1553C83.0915 582.854 83.0413 582.66 83.0049 582.419C82.9684 582.173 82.9502 581.945 82.9502 581.735ZM83.1689 578.516L83.1826 579.404H81.9043C81.5443 579.404 81.223 579.434 80.9404 579.493C80.6579 579.548 80.4209 579.632 80.2295 579.746C80.0381 579.86 79.8923 580.004 79.792 580.177C79.6917 580.345 79.6416 580.544 79.6416 580.771C79.6416 581.004 79.694 581.216 79.7988 581.407C79.9036 581.599 80.0609 581.751 80.2705 581.865C80.4847 581.975 80.7467 582.029 81.0566 582.029C81.444 582.029 81.7858 581.947 82.082 581.783C82.3783 581.619 82.613 581.419 82.7861 581.182C82.9639 580.945 83.0596 580.715 83.0732 580.491L83.6133 581.1C83.5814 581.291 83.4948 581.503 83.3535 581.735C83.2122 581.968 83.0231 582.191 82.7861 582.405C82.5537 582.615 82.2757 582.79 81.9521 582.932C81.6331 583.068 81.2731 583.137 80.8721 583.137C80.3708 583.137 79.931 583.039 79.5527 582.843C79.179 582.647 78.8874 582.385 78.6777 582.057C78.4727 581.724 78.3701 581.353 78.3701 580.942C78.3701 580.546 78.4476 580.197 78.6025 579.896C78.7575 579.591 78.9808 579.338 79.2725 579.138C79.5641 578.933 79.915 578.778 80.3252 578.673C80.7354 578.568 81.1934 578.516 81.6992 578.516H83.1689ZM89.6641 582.098C89.9648 582.098 90.2428 582.036 90.498 581.913C90.7533 581.79 90.9629 581.621 91.127 581.407C91.291 581.188 91.3844 580.94 91.4072 580.662H92.6104C92.5876 581.1 92.4395 581.507 92.166 581.886C91.8971 582.259 91.5439 582.562 91.1064 582.795C90.6689 583.023 90.1882 583.137 89.6641 583.137C89.1081 583.137 88.6227 583.039 88.208 582.843C87.7979 582.647 87.4561 582.378 87.1826 582.036C86.9137 581.694 86.7109 581.302 86.5742 580.86C86.4421 580.414 86.376 579.942 86.376 579.445V579.158C86.376 578.661 86.4421 578.192 86.5742 577.75C86.7109 577.303 86.9137 576.909 87.1826 576.567C87.4561 576.226 87.7979 575.957 88.208 575.761C88.6227 575.565 89.1081 575.467 89.6641 575.467C90.2428 575.467 90.7487 575.585 91.1816 575.822C91.6146 576.055 91.9541 576.374 92.2002 576.779C92.4508 577.18 92.5876 577.636 92.6104 578.146H91.4072C91.3844 577.841 91.2979 577.565 91.1475 577.319C91.0016 577.073 90.8011 576.877 90.5459 576.731C90.2952 576.581 90.0013 576.506 89.6641 576.506C89.2767 576.506 88.9508 576.583 88.6865 576.738C88.4268 576.889 88.2194 577.094 88.0645 577.354C87.9141 577.609 87.8047 577.894 87.7363 578.208C87.6725 578.518 87.6406 578.835 87.6406 579.158V579.445C87.6406 579.769 87.6725 580.088 87.7363 580.402C87.8001 580.717 87.9072 581.002 88.0576 581.257C88.2126 581.512 88.4199 581.717 88.6797 581.872C88.944 582.022 89.2721 582.098 89.6641 582.098ZM95.7969 576.766V583H94.5322V575.604H95.7627L95.7969 576.766ZM98.1074 575.562L98.1006 576.738C97.9958 576.715 97.8955 576.702 97.7998 576.697C97.7087 576.688 97.6038 576.684 97.4854 576.684C97.1937 576.684 96.9362 576.729 96.7129 576.82C96.4896 576.911 96.3005 577.039 96.1455 577.203C95.9906 577.367 95.8675 577.563 95.7764 577.791C95.6898 578.014 95.6328 578.26 95.6055 578.529L95.25 578.734C95.25 578.288 95.2933 577.868 95.3799 577.477C95.471 577.085 95.61 576.738 95.7969 576.438C95.9837 576.132 96.2207 575.895 96.5078 575.727C96.7995 575.553 97.1458 575.467 97.5469 575.467C97.638 575.467 97.7428 575.478 97.8613 575.501C97.9798 575.519 98.0618 575.54 98.1074 575.562ZM99.3047 579.384V579.227C99.3047 578.693 99.3822 578.199 99.5371 577.743C99.6921 577.283 99.9154 576.884 100.207 576.547C100.499 576.205 100.852 575.941 101.267 575.754C101.681 575.562 102.146 575.467 102.661 575.467C103.181 575.467 103.648 575.562 104.062 575.754C104.482 575.941 104.837 576.205 105.129 576.547C105.425 576.884 105.651 577.283 105.806 577.743C105.961 578.199 106.038 578.693 106.038 579.227V579.384C106.038 579.917 105.961 580.411 105.806 580.867C105.651 581.323 105.425 581.722 105.129 582.063C104.837 582.401 104.484 582.665 104.069 582.856C103.659 583.043 103.194 583.137 102.675 583.137C102.155 583.137 101.688 583.043 101.273 582.856C100.859 582.665 100.503 582.401 100.207 582.063C99.9154 581.722 99.6921 581.323 99.5371 580.867C99.3822 580.411 99.3047 579.917 99.3047 579.384ZM100.569 579.227V579.384C100.569 579.753 100.613 580.102 100.699 580.43C100.786 580.753 100.916 581.04 101.089 581.291C101.267 581.542 101.488 581.74 101.752 581.886C102.016 582.027 102.324 582.098 102.675 582.098C103.021 582.098 103.324 582.027 103.584 581.886C103.848 581.74 104.067 581.542 104.24 581.291C104.413 581.04 104.543 580.753 104.63 580.43C104.721 580.102 104.767 579.753 104.767 579.384V579.227C104.767 578.862 104.721 578.518 104.63 578.194C104.543 577.866 104.411 577.577 104.233 577.326C104.06 577.071 103.841 576.87 103.577 576.725C103.317 576.579 103.012 576.506 102.661 576.506C102.315 576.506 102.009 576.579 101.745 576.725C101.485 576.87 101.267 577.071 101.089 577.326C100.916 577.577 100.786 577.866 100.699 578.194C100.613 578.518 100.569 578.862 100.569 579.227ZM110.264 581.858L112.287 575.604H113.579L110.92 583H110.072L110.264 581.858ZM108.575 575.604L110.66 581.893L110.804 583H109.956L107.276 575.604H108.575ZM118.27 583.137C117.755 583.137 117.287 583.05 116.868 582.877C116.453 582.699 116.096 582.451 115.795 582.132C115.499 581.813 115.271 581.435 115.111 580.997C114.952 580.56 114.872 580.081 114.872 579.562V579.274C114.872 578.673 114.961 578.137 115.139 577.668C115.316 577.194 115.558 576.793 115.863 576.465C116.169 576.137 116.515 575.888 116.902 575.72C117.29 575.551 117.691 575.467 118.105 575.467C118.634 575.467 119.09 575.558 119.473 575.74C119.86 575.923 120.177 576.178 120.423 576.506C120.669 576.829 120.851 577.212 120.97 577.654C121.088 578.092 121.147 578.57 121.147 579.09V579.657H115.624V578.625H119.883V578.529C119.865 578.201 119.796 577.882 119.678 577.572C119.564 577.262 119.382 577.007 119.131 576.807C118.88 576.606 118.538 576.506 118.105 576.506C117.818 576.506 117.554 576.567 117.312 576.69C117.071 576.809 116.864 576.987 116.69 577.224C116.517 577.461 116.383 577.75 116.287 578.092C116.191 578.434 116.144 578.828 116.144 579.274V579.562C116.144 579.912 116.191 580.243 116.287 580.553C116.387 580.858 116.531 581.127 116.718 581.359C116.909 581.592 117.139 581.774 117.408 581.906C117.682 582.038 117.992 582.104 118.338 582.104C118.785 582.104 119.163 582.013 119.473 581.831C119.783 581.649 120.054 581.405 120.286 581.1L121.052 581.708C120.892 581.95 120.689 582.18 120.443 582.398C120.197 582.617 119.894 582.795 119.534 582.932C119.179 583.068 118.757 583.137 118.27 583.137ZM126.084 582.098C126.385 582.098 126.663 582.036 126.918 581.913C127.173 581.79 127.383 581.621 127.547 581.407C127.711 581.188 127.804 580.94 127.827 580.662H129.03C129.007 581.1 128.859 581.507 128.586 581.886C128.317 582.259 127.964 582.562 127.526 582.795C127.089 583.023 126.608 583.137 126.084 583.137C125.528 583.137 125.043 583.039 124.628 582.843C124.218 582.647 123.876 582.378 123.603 582.036C123.334 581.694 123.131 581.302 122.994 580.86C122.862 580.414 122.796 579.942 122.796 579.445V579.158C122.796 578.661 122.862 578.192 122.994 577.75C123.131 577.303 123.334 576.909 123.603 576.567C123.876 576.226 124.218 575.957 124.628 575.761C125.043 575.565 125.528 575.467 126.084 575.467C126.663 575.467 127.169 575.585 127.602 575.822C128.035 576.055 128.374 576.374 128.62 576.779C128.871 577.18 129.007 577.636 129.03 578.146H127.827C127.804 577.841 127.718 577.565 127.567 577.319C127.422 577.073 127.221 576.877 126.966 576.731C126.715 576.581 126.421 576.506 126.084 576.506C125.697 576.506 125.371 576.583 125.106 576.738C124.847 576.889 124.639 577.094 124.484 577.354C124.334 577.609 124.225 577.894 124.156 578.208C124.092 578.518 124.061 578.835 124.061 579.158V579.445C124.061 579.769 124.092 580.088 124.156 580.402C124.22 580.717 124.327 581.002 124.478 581.257C124.632 581.512 124.84 581.717 125.1 581.872C125.364 582.022 125.692 582.098 126.084 582.098ZM134.049 575.604V576.574H130.05V575.604H134.049ZM131.403 573.806H132.668V581.168C132.668 581.419 132.707 581.608 132.784 581.735C132.862 581.863 132.962 581.947 133.085 581.988C133.208 582.029 133.34 582.05 133.481 582.05C133.586 582.05 133.696 582.041 133.81 582.022C133.928 582 134.017 581.981 134.076 581.968L134.083 583C133.983 583.032 133.851 583.062 133.687 583.089C133.527 583.121 133.333 583.137 133.105 583.137C132.796 583.137 132.511 583.075 132.251 582.952C131.991 582.829 131.784 582.624 131.629 582.337C131.479 582.045 131.403 581.653 131.403 581.161V573.806ZM135.561 579.384V579.227C135.561 578.693 135.638 578.199 135.793 577.743C135.948 577.283 136.171 576.884 136.463 576.547C136.755 576.205 137.108 575.941 137.522 575.754C137.937 575.562 138.402 575.467 138.917 575.467C139.437 575.467 139.904 575.562 140.318 575.754C140.738 575.941 141.093 576.205 141.385 576.547C141.681 576.884 141.907 577.283 142.062 577.743C142.216 578.199 142.294 578.693 142.294 579.227V579.384C142.294 579.917 142.216 580.411 142.062 580.867C141.907 581.323 141.681 581.722 141.385 582.063C141.093 582.401 140.74 582.665 140.325 582.856C139.915 583.043 139.45 583.137 138.931 583.137C138.411 583.137 137.944 583.043 137.529 582.856C137.115 582.665 136.759 582.401 136.463 582.063C136.171 581.722 135.948 581.323 135.793 580.867C135.638 580.411 135.561 579.917 135.561 579.384ZM136.825 579.227V579.384C136.825 579.753 136.868 580.102 136.955 580.43C137.042 580.753 137.172 581.04 137.345 581.291C137.522 581.542 137.743 581.74 138.008 581.886C138.272 582.027 138.58 582.098 138.931 582.098C139.277 582.098 139.58 582.027 139.84 581.886C140.104 581.74 140.323 581.542 140.496 581.291C140.669 581.04 140.799 580.753 140.886 580.43C140.977 580.102 141.022 579.753 141.022 579.384V579.227C141.022 578.862 140.977 578.518 140.886 578.194C140.799 577.866 140.667 577.577 140.489 577.326C140.316 577.071 140.097 576.87 139.833 576.725C139.573 576.579 139.268 576.506 138.917 576.506C138.571 576.506 138.265 576.579 138.001 576.725C137.741 576.87 137.522 577.071 137.345 577.326C137.172 577.577 137.042 577.866 136.955 578.194C136.868 578.518 136.825 578.862 136.825 579.227ZM145.645 576.766V583H144.38V575.604H145.61L145.645 576.766ZM147.955 575.562L147.948 576.738C147.843 576.715 147.743 576.702 147.647 576.697C147.556 576.688 147.451 576.684 147.333 576.684C147.041 576.684 146.784 576.729 146.561 576.82C146.337 576.911 146.148 577.039 145.993 577.203C145.838 577.367 145.715 577.563 145.624 577.791C145.537 578.014 145.48 578.26 145.453 578.529L145.098 578.734C145.098 578.288 145.141 577.868 145.228 577.477C145.319 577.085 145.458 576.738 145.645 576.438C145.831 576.132 146.068 575.895 146.355 575.727C146.647 575.553 146.993 575.467 147.395 575.467C147.486 575.467 147.59 575.478 147.709 575.501C147.827 575.519 147.91 575.54 147.955 575.562ZM153.262 579.384V579.227C153.262 578.693 153.339 578.199 153.494 577.743C153.649 577.283 153.872 576.884 154.164 576.547C154.456 576.205 154.809 575.941 155.224 575.754C155.638 575.562 156.103 575.467 156.618 575.467C157.138 575.467 157.605 575.562 158.02 575.754C158.439 575.941 158.794 576.205 159.086 576.547C159.382 576.884 159.608 577.283 159.763 577.743C159.918 578.199 159.995 578.693 159.995 579.227V579.384C159.995 579.917 159.918 580.411 159.763 580.867C159.608 581.323 159.382 581.722 159.086 582.063C158.794 582.401 158.441 582.665 158.026 582.856C157.616 583.043 157.151 583.137 156.632 583.137C156.112 583.137 155.645 583.043 155.23 582.856C154.816 582.665 154.46 582.401 154.164 582.063C153.872 581.722 153.649 581.323 153.494 580.867C153.339 580.411 153.262 579.917 153.262 579.384ZM154.526 579.227V579.384C154.526 579.753 154.57 580.102 154.656 580.43C154.743 580.753 154.873 581.04 155.046 581.291C155.224 581.542 155.445 581.74 155.709 581.886C155.973 582.027 156.281 582.098 156.632 582.098C156.978 582.098 157.281 582.027 157.541 581.886C157.805 581.74 158.024 581.542 158.197 581.291C158.37 581.04 158.5 580.753 158.587 580.43C158.678 580.102 158.724 579.753 158.724 579.384V579.227C158.724 578.862 158.678 578.518 158.587 578.194C158.5 577.866 158.368 577.577 158.19 577.326C158.017 577.071 157.799 576.87 157.534 576.725C157.274 576.579 156.969 576.506 156.618 576.506C156.272 576.506 155.966 576.579 155.702 576.725C155.442 576.87 155.224 577.071 155.046 577.326C154.873 577.577 154.743 577.866 154.656 578.194C154.57 578.518 154.526 578.862 154.526 579.227ZM163.346 577.183V583H162.081V575.604H163.277L163.346 577.183ZM163.045 579.021L162.519 579.001C162.523 578.495 162.598 578.028 162.744 577.6C162.89 577.167 163.095 576.791 163.359 576.472C163.624 576.153 163.938 575.907 164.303 575.733C164.672 575.556 165.08 575.467 165.526 575.467C165.891 575.467 166.219 575.517 166.511 575.617C166.802 575.713 167.051 575.868 167.256 576.082C167.465 576.296 167.625 576.574 167.734 576.916C167.844 577.253 167.898 577.666 167.898 578.153V583H166.627V578.14C166.627 577.752 166.57 577.442 166.456 577.21C166.342 576.973 166.176 576.802 165.957 576.697C165.738 576.588 165.469 576.533 165.15 576.533C164.836 576.533 164.549 576.599 164.289 576.731C164.034 576.864 163.813 577.046 163.626 577.278C163.444 577.511 163.3 577.777 163.195 578.078C163.095 578.374 163.045 578.689 163.045 579.021ZM175.803 573.047V583H174.483V573.047H175.803ZM179.973 577.524V578.604H175.516V577.524H179.973ZM180.649 573.047V574.127H175.516V573.047H180.649ZM183.617 576.766V583H182.353V575.604H183.583L183.617 576.766ZM185.928 575.562L185.921 576.738C185.816 576.715 185.716 576.702 185.62 576.697C185.529 576.688 185.424 576.684 185.306 576.684C185.014 576.684 184.757 576.729 184.533 576.82C184.31 576.911 184.121 577.039 183.966 577.203C183.811 577.367 183.688 577.563 183.597 577.791C183.51 578.014 183.453 578.26 183.426 578.529L183.07 578.734C183.07 578.288 183.114 577.868 183.2 577.477C183.291 577.085 183.43 576.738 183.617 576.438C183.804 576.132 184.041 575.895 184.328 575.727C184.62 575.553 184.966 575.467 185.367 575.467C185.458 575.467 185.563 575.478 185.682 575.501C185.8 575.519 185.882 575.54 185.928 575.562ZM190.529 583.137C190.014 583.137 189.547 583.05 189.128 582.877C188.713 582.699 188.355 582.451 188.055 582.132C187.758 581.813 187.531 581.435 187.371 580.997C187.212 580.56 187.132 580.081 187.132 579.562V579.274C187.132 578.673 187.221 578.137 187.398 577.668C187.576 577.194 187.818 576.793 188.123 576.465C188.428 576.137 188.775 575.888 189.162 575.72C189.549 575.551 189.951 575.467 190.365 575.467C190.894 575.467 191.35 575.558 191.732 575.74C192.12 575.923 192.437 576.178 192.683 576.506C192.929 576.829 193.111 577.212 193.229 577.654C193.348 578.092 193.407 578.57 193.407 579.09V579.657H187.884V578.625H192.143V578.529C192.124 578.201 192.056 577.882 191.938 577.572C191.824 577.262 191.641 577.007 191.391 576.807C191.14 576.606 190.798 576.506 190.365 576.506C190.078 576.506 189.814 576.567 189.572 576.69C189.331 576.809 189.123 576.987 188.95 577.224C188.777 577.461 188.643 577.75 188.547 578.092C188.451 578.434 188.403 578.828 188.403 579.274V579.562C188.403 579.912 188.451 580.243 188.547 580.553C188.647 580.858 188.791 581.127 188.978 581.359C189.169 581.592 189.399 581.774 189.668 581.906C189.941 582.038 190.251 582.104 190.598 582.104C191.044 582.104 191.423 582.013 191.732 581.831C192.042 581.649 192.313 581.405 192.546 581.1L193.312 581.708C193.152 581.95 192.949 582.18 192.703 582.398C192.457 582.617 192.154 582.795 191.794 582.932C191.438 583.068 191.017 583.137 190.529 583.137ZM198.453 583.137C197.938 583.137 197.471 583.05 197.052 582.877C196.637 582.699 196.279 582.451 195.979 582.132C195.682 581.813 195.454 581.435 195.295 580.997C195.135 580.56 195.056 580.081 195.056 579.562V579.274C195.056 578.673 195.145 578.137 195.322 577.668C195.5 577.194 195.742 576.793 196.047 576.465C196.352 576.137 196.699 575.888 197.086 575.72C197.473 575.551 197.874 575.467 198.289 575.467C198.818 575.467 199.273 575.558 199.656 575.74C200.044 575.923 200.36 576.178 200.606 576.506C200.853 576.829 201.035 577.212 201.153 577.654C201.272 578.092 201.331 578.57 201.331 579.09V579.657H195.808V578.625H200.066V578.529C200.048 578.201 199.98 577.882 199.861 577.572C199.747 577.262 199.565 577.007 199.314 576.807C199.064 576.606 198.722 576.506 198.289 576.506C198.002 576.506 197.738 576.567 197.496 576.69C197.255 576.809 197.047 576.987 196.874 577.224C196.701 577.461 196.566 577.75 196.471 578.092C196.375 578.434 196.327 578.828 196.327 579.274V579.562C196.327 579.912 196.375 580.243 196.471 580.553C196.571 580.858 196.715 581.127 196.901 581.359C197.093 581.592 197.323 581.774 197.592 581.906C197.865 582.038 198.175 582.104 198.521 582.104C198.968 582.104 199.346 582.013 199.656 581.831C199.966 581.649 200.237 581.405 200.47 581.1L201.235 581.708C201.076 581.95 200.873 582.18 200.627 582.398C200.381 582.617 200.078 582.795 199.718 582.932C199.362 583.068 198.941 583.137 198.453 583.137ZM204.572 577.025V585.844H203.301V575.604H204.463L204.572 577.025ZM209.556 579.24V579.384C209.556 579.922 209.492 580.421 209.364 580.881C209.237 581.337 209.05 581.733 208.804 582.07C208.562 582.408 208.264 582.67 207.908 582.856C207.553 583.043 207.145 583.137 206.685 583.137C206.215 583.137 205.8 583.059 205.44 582.904C205.08 582.749 204.775 582.524 204.524 582.228C204.274 581.931 204.073 581.576 203.923 581.161C203.777 580.746 203.677 580.279 203.622 579.76V578.994C203.677 578.447 203.779 577.957 203.93 577.524C204.08 577.091 204.278 576.722 204.524 576.417C204.775 576.107 205.078 575.872 205.434 575.713C205.789 575.549 206.199 575.467 206.664 575.467C207.129 575.467 207.541 575.558 207.901 575.74C208.261 575.918 208.564 576.173 208.811 576.506C209.057 576.839 209.241 577.237 209.364 577.702C209.492 578.162 209.556 578.675 209.556 579.24ZM208.284 579.384V579.24C208.284 578.871 208.245 578.525 208.168 578.201C208.09 577.873 207.97 577.586 207.806 577.34C207.646 577.089 207.441 576.893 207.19 576.752C206.94 576.606 206.641 576.533 206.295 576.533C205.976 576.533 205.698 576.588 205.461 576.697C205.229 576.807 205.03 576.955 204.866 577.142C204.702 577.324 204.568 577.534 204.463 577.771C204.363 578.003 204.287 578.244 204.237 578.495V580.266C204.328 580.585 204.456 580.885 204.62 581.168C204.784 581.446 205.003 581.672 205.276 581.845C205.55 582.013 205.894 582.098 206.309 582.098C206.65 582.098 206.944 582.027 207.19 581.886C207.441 581.74 207.646 581.542 207.806 581.291C207.97 581.04 208.09 580.753 208.168 580.43C208.245 580.102 208.284 579.753 208.284 579.384ZM213.043 575.604V583H211.771V575.604H213.043ZM211.676 573.642C211.676 573.437 211.737 573.263 211.86 573.122C211.988 572.981 212.175 572.91 212.421 572.91C212.662 572.91 212.847 572.981 212.975 573.122C213.107 573.263 213.173 573.437 213.173 573.642C213.173 573.838 213.107 574.006 212.975 574.147C212.847 574.284 212.662 574.353 212.421 574.353C212.175 574.353 211.988 574.284 211.86 574.147C211.737 574.006 211.676 573.838 211.676 573.642ZM216.845 572.5V583H215.573V572.5H216.845ZM221.363 575.604L218.137 579.056L216.332 580.929L216.229 579.582L217.521 578.037L219.818 575.604H221.363ZM220.208 583L217.569 579.473L218.226 578.345L221.698 583H220.208Z" fill="#747474"/>
<defs>
<filter id="filter0_d_30_62" x="70" y="77" width="449.23" height="457.07" filterUnits="userSpaceOnUse" color-interpolation-filters="sRGB">
<feFlood flood-opacity="0" result="BackgroundImageFix"/>
<feColorMatrix in="SourceAlpha" type="matrix" values="0 0 0 0 0 0 0 0 0 0 0 0 0 0 0 0 0 0 127 0" result="hardAlpha"/>
<feOffset dy="4"/>
<feGaussianBlur stdDeviation="22"/>
<feComposite in2="hardAlpha" operator="out"/>
<feColorMatrix type="matrix" values="0 0 0 0 0 0 0 0 0 0 0 0 0 0 0 0 0 0 0.65 0"/>
<feBlend mode="normal" in2="BackgroundImageFix" result="effect1_dropShadow_30_62"/>
<feBlend mode="normal" in="SourceGraphic" in2="effect1_dropShadow_30_62" result="shape"/>
</filter>
<clipPath id="clip0_30_62">
<rect width="361.23" height="369.07" fill="white" transform="translate(114 117)"/>
</clipPath>
</defs>
</svg>
