<svg width="47" height="47" viewBox="0 0 47 47" fill="none" xmlns="http://www.w3.org/2000/svg">
<rect width="47" height="47" rx="8" fill="#C3325F"/>
<path d="M26 22V29M22 22V29M18 18V29.8C18 30.9201 18 31.4798 18.218 31.9076C18.4097 32.2839 18.7155 32.5905 19.0918 32.7822C19.5192 33 20.079 33 21.1969 33H26.8031C27.921 33 28.48 33 28.9074 32.7822C29.2837 32.5905 29.5905 32.2839 29.7822 31.9076C30 31.4802 30 30.921 30 29.8031V18M18 18H20M18 18H16M20 18H28M20 18C20 17.0681 20 16.6024 20.1522 16.2349C20.3552 15.7448 20.7443 15.3552 21.2344 15.1522C21.6019 15 22.0681 15 23 15H25C25.9319 15 26.3978 15 26.7654 15.1522C27.2554 15.3552 27.6447 15.7448 27.8477 16.2349C27.9999 16.6024 28 17.0681 28 18M28 18H30M30 18H32" stroke="white" stroke-width="2" stroke-linecap="round" stroke-linejoin="round"/>
</svg>
