<svg width="47" height="47" viewBox="0 0 47 47" fill="none" xmlns="http://www.w3.org/2000/svg">
<rect width="47" height="47" rx="8" fill="#3C91FF"/>
<path d="M26.6667 13L27.2646 14.1178C27.6689 14.8735 27.871 15.2513 27.7374 15.4131C27.6037 15.575 27.1635 15.4443 26.2831 15.1829C25.4029 14.9216 24.4684 14.781 23.5 14.781C18.2533 14.781 14 18.9085 14 24C14 25.6792 14.4626 27.2535 15.2709 28.6095M20.3333 35L19.7354 33.8822C19.3311 33.1265 19.1289 32.7487 19.2626 32.5869C19.3963 32.425 19.8365 32.5557 20.7169 32.8171C21.5971 33.0784 22.5316 33.219 23.5 33.219C28.7467 33.219 33 29.0915 33 24C33 22.3208 32.5374 20.7465 31.7291 19.3905" stroke="white" stroke-width="2" stroke-linecap="round" stroke-linejoin="round"/>
</svg>
